0
SECTION
2
HEADER
0
ENDSEC
0
SECTION
2
TABLES
0
TABLE
2
LAYER
70
1
0
LAYER
2
plants3
70
0
62
0
6
CONTINUOUS
0
ENDTAB
0
ENDSEC
0
SECTION
2
ENTITIES
0
3DFACE
8
plants3
10
-13.4023
20
-57.6609
30
45.1703
11
-14.9151
21
-60.3181
31
41.7994
12
-13.6556
22
-56.569
32
51.5381
13
-13.7948
23
-51.7515
33
56.0252
0
3DFACE
8
plants3
10
-13.6556
20
-56.569
30
51.5381
11
-12.3628
21
-52.9826
31
57.9512
12
-13.7948
22
-51.7515
32
56.0252
13
-13.7948
23
-51.7515
33
56.0252
0
3DFACE
8
plants3
10
-1.5212
20
-34.8563
30
57.1047
11
-4.10291
21
-45.8518
31
53.5179
12
-5.32494
22
-37.1286
32
64.352
13
-4.50681
23
-31.9976
33
66.4769
0
3DFACE
8
plants3
10
-5.32494
20
-37.1286
30
64.352
11
-4.78541
21
-31.6651
31
67.5795
12
-4.50681
22
-31.9976
32
66.4769
13
-4.50681
23
-31.9976
33
66.4769
0
3DFACE
8
plants3
10
-4.10291
20
-45.8518
30
53.5179
11
-7.05068
21
-48.8817
31
50.8871
12
-10.3108
22
-47.2378
32
62.327
13
-5.32494
23
-37.1286
33
64.352
0
3DFACE
8
plants3
10
-10.3108
20
-47.2378
30
62.327
11
-8.07087
21
-44.7064
31
65.3492
12
-4.78541
22
-31.6651
32
67.5795
13
-5.32494
23
-37.1286
33
64.352
0
3DFACE
8
plants3
10
-8.27007
20
-51.9547
30
48.8238
11
-9.95111
21
-54.4081
31
49.3453
12
-13.7948
22
-51.7515
32
56.0252
13
-10.7911
23
-50.4277
33
59.532
0
3DFACE
8
plants3
10
-13.7948
20
-51.7515
30
56.0252
11
-12.3628
21
-52.9826
31
57.9512
12
-10.9648
22
-49.7142
32
61.5963
13
-10.7911
23
-50.4277
33
59.532
0
3DFACE
8
plants3
10
-9.95111
20
-54.4081
30
49.3453
11
-13.4023
21
-57.6609
31
45.1703
12
-13.7948
22
-51.7515
32
56.0252
13
-13.7948
23
-51.7515
33
56.0252
0
3DFACE
8
plants3
10
-7.05068
20
-48.8817
30
50.8871
11
-8.27007
21
-51.9547
31
48.8238
12
-10.7911
22
-50.4277
32
59.532
13
-10.3108
23
-47.2378
33
62.327
0
3DFACE
8
plants3
10
-10.7911
20
-50.4277
30
59.532
11
-10.9648
21
-49.7142
31
61.5963
12
-8.07087
22
-44.7064
32
65.3492
13
-10.3108
23
-47.2378
33
62.327
0
3DFACE
8
plants3
10
-2.95404
20
-30.8387
30
56.3675
11
-1.5212
21
-34.8563
31
57.1047
12
-4.50681
22
-31.9976
32
66.4769
13
-3.74182
23
-27.3497
33
66.1164
0
3DFACE
8
plants3
10
-4.50681
20
-31.9976
30
66.4769
11
-4.78541
21
-31.6651
31
67.5795
12
-4.26245
22
-20.8822
32
66.2661
13
-3.74182
23
-27.3497
33
66.1164
0
3DFACE
8
plants3
10
-1.70036
20
-20.2456
30
59.4973
11
-3.60876
21
-22.753
31
59.8703
12
-3.01819
22
-20.3531
32
65.9985
13
-3.54023
23
-16.008
33
64.2667
0
3DFACE
8
plants3
10
-3.01819
20
-20.3531
30
65.9985
11
-4.26245
21
-20.8822
31
66.2661
12
-4.23693
22
-14.8291
32
65.3668
13
-3.54023
23
-16.008
33
64.2667
0
3DFACE
8
plants3
10
-3.60876
20
-22.753
30
59.8703
11
-2.95404
21
-30.8387
31
56.3675
12
-3.74182
22
-27.3497
32
66.1164
13
-3.01819
23
-20.3531
33
65.9985
0
3DFACE
8
plants3
10
-3.74182
20
-27.3497
30
66.1164
11
-4.26245
21
-20.8822
31
66.2661
12
-3.01819
22
-20.3531
32
65.9985
13
-3.01819
23
-20.3531
33
65.9985
0
3DFACE
8
plants3
10
-2.39241
20
-15.8423
30
58.8534
11
-1.70036
21
-20.2456
31
59.4973
12
-3.54023
22
-16.008
32
64.2667
13
0.290548
23
-12.5291
33
60.461
0
3DFACE
8
plants3
10
0.290548
20
-12.5291
30
60.461
11
-3.54023
21
-16.008
31
64.2667
12
0.98853
22
-11.056
32
61.2546
13
0.98853
23
-11.056
33
61.2546
0
3DFACE
8
plants3
10
2.43635
20
-2.52112
30
55.9094
11
1.59996
21
-0.826232
31
56.7774
12
2.3984
22
8.94165
32
48.8196
13
3.43143
23
8.08308
33
48.1233
0
3DFACE
8
plants3
10
-0.0154275
20
21.2959
30
-1.59218
11
2.27969
21
19.7557
31
19.4842
12
0.967333
22
20.0371
32
19.9138
13
-1.41119
23
21.2486
33
-1.44281
0
3DFACE
8
plants3
10
0.98853
20
-11.056
30
61.2546
11
-0.167734
21
-9.48811
31
61.8621
12
1.59996
22
-0.826232
32
56.7774
13
2.43635
23
-2.52112
33
55.9094
0
3DFACE
8
plants3
10
3.43143
20
8.08308
30
48.1233
11
2.3984
21
8.94165
31
48.8196
12
0.967333
22
20.0371
32
19.9138
13
2.27969
23
19.7557
33
19.4842
0
3DFACE
8
plants3
10
-13.2904
20
-60.4517
30
32.9168
11
-14.9151
21
-60.3181
31
41.7994
12
-13.4023
22
-57.6609
32
45.1703
13
-13.4023
23
-57.6609
33
45.1703
0
3DFACE
8
plants3
10
-10.9668
20
-56.8642
30
36.027
11
-13.2904
21
-60.4517
31
32.9168
12
-13.4023
22
-57.6609
32
45.1703
13
-9.95111
23
-54.4081
33
49.3453
0
3DFACE
8
plants3
10
-9.49443
20
-55.5054
30
30.1102
11
-10.9668
21
-56.8642
31
36.027
12
-9.95111
22
-54.4081
32
49.3453
13
-8.27007
23
-51.9547
33
48.8238
0
3DFACE
8
plants3
10
-8.54194
20
-49.6778
30
43.4355
11
-9.49443
21
-55.5054
31
30.1102
12
-8.27007
22
-51.9547
32
48.8238
13
-7.05068
23
-48.8817
33
50.8871
0
3DFACE
8
plants3
10
-6.79203
20
-45.4955
30
40.6661
11
-8.54194
21
-49.6778
31
43.4355
12
-7.05068
22
-48.8817
32
50.8871
13
-4.10291
23
-45.8518
33
53.5179
0
3DFACE
8
plants3
10
-5.4729
20
-37.6703
30
50.5665
11
-6.79203
21
-45.4955
31
40.6661
12
-4.10291
22
-45.8518
32
53.5179
13
-1.5212
23
-34.8563
33
57.1047
0
3DFACE
8
plants3
10
-3.20901
20
-33.3905
30
45.3757
11
-5.4729
21
-37.6703
31
50.5665
12
-1.5212
22
-34.8563
32
57.1047
13
-2.95404
23
-30.8387
33
56.3675
0
3DFACE
8
plants3
10
-4.01407
20
-23.9776
30
53.7617
11
-3.20901
21
-33.3905
31
45.3757
12
-2.95404
22
-30.8387
32
56.3675
13
-3.60876
23
-22.753
33
59.8703
0
3DFACE
8
plants3
10
-2.85099
20
-14.7461
30
55.1102
11
-4.01407
21
-23.9776
31
53.7617
12
-3.60876
22
-22.753
32
59.8703
13
-1.70036
23
-20.2456
33
59.4973
0
3DFACE
8
plants3
10
-2.85099
20
-14.7461
30
55.1102
11
-1.70036
21
-20.2456
31
59.4973
12
-2.39241
22
-15.8423
32
58.8534
13
-2.39241
23
-15.8423
33
58.8534
0
3DFACE
8
plants3
10
0.290548
20
-12.5291
30
60.461
11
0.98853
21
-11.056
31
61.2546
12
2.43635
22
-2.52112
32
55.9094
13
1.37993
23
-3.21162
33
55.2985
0
3DFACE
8
plants3
10
1.37993
20
-3.21162
30
55.2985
11
2.43635
21
-2.52112
31
55.9094
12
3.43143
22
8.08308
32
48.1233
13
2.52806
23
7.0045
33
47.4795
0
3DFACE
8
plants3
10
2.52806
20
7.0045
30
47.4795
11
3.43143
21
8.08308
31
48.1233
12
2.27969
22
19.7557
32
19.4842
13
1.87575
23
18.343
33
18.9918
0
3DFACE
8
plants3
10
-0.163199
20
19.8439
30
-1.8546
11
1.87575
21
18.343
31
18.9918
12
2.27969
22
19.7557
32
19.4842
13
-0.0154275
23
21.2959
33
-1.59218
0
3DFACE
8
plants3
10
-3.54023
20
-16.008
30
64.2667
11
-4.23693
21
-14.8291
31
65.3668
12
-0.167734
22
-9.48811
32
61.8621
13
0.98853
23
-11.056
33
61.2546
0
3DFACE
8
plants3
10
-19.2988
20
-29.2238
30
76.265
11
-22.5482
21
-30.7364
31
74.4385
12
-17.9885
22
-26.5951
32
80.8953
13
-13.522
23
-24.2529
33
82.8812
0
3DFACE
8
plants3
10
-17.9885
20
-26.5951
30
80.8953
11
-14.4807
21
-23.7311
31
84.7154
12
-13.522
22
-24.2529
32
82.8812
13
-13.522
23
-24.2529
33
82.8812
0
3DFACE
8
plants3
10
-0.753715
20
-17.7847
30
83.2658
11
-3.712
21
-24.0977
31
79.9588
12
-5.151
22
-14.5156
32
89.0083
13
-4.22214
23
-10.3615
33
87.2867
0
3DFACE
8
plants3
10
-5.151
20
-14.5156
30
89.0083
11
-4.69866
21
-9.51961
31
87.7629
12
-4.22214
22
-10.3615
32
87.2867
13
-4.22214
23
-10.3615
33
87.2867
0
3DFACE
8
plants3
10
-3.712
20
-24.0977
30
79.9588
11
-7.76512
21
-25.0664
31
78.0363
12
-8.84815
22
-19.917
32
87.6287
13
-5.151
23
-14.5156
33
89.0083
0
3DFACE
8
plants3
10
-8.84815
20
-19.917
30
87.6287
11
-9.95911
21
-18.8863
31
88.7812
12
-4.69866
22
-9.51961
32
87.7629
13
-5.151
23
-14.5156
33
89.0083
0
3DFACE
8
plants3
10
-11.3626
20
-28.1618
30
77.668
11
-14.1154
21
-28.3039
31
78.8879
12
-13.522
22
-24.2529
32
82.8812
13
-10.9105
23
-22.5925
33
86.2323
0
3DFACE
8
plants3
10
-13.522
20
-24.2529
30
82.8812
11
-14.4807
21
-23.7311
31
84.7154
12
-11.5983
22
-21.6321
32
87.1907
13
-10.9105
23
-22.5925
33
86.2323
0
3DFACE
8
plants3
10
-14.1154
20
-28.3039
30
78.8879
11
-19.2988
21
-29.2238
31
76.265
12
-13.522
22
-24.2529
32
82.8812
13
-13.522
23
-24.2529
33
82.8812
0
3DFACE
8
plants3
10
-7.76512
20
-25.0664
30
78.0363
11
-11.3626
21
-28.1618
31
77.668
12
-10.9105
22
-22.5925
32
86.2323
13
-8.84815
23
-19.917
33
87.6287
0
3DFACE
8
plants3
10
-10.9105
20
-22.5925
30
86.2323
11
-11.5983
21
-21.6321
31
87.1907
12
-9.95911
22
-18.8863
32
88.7812
13
-8.84815
23
-19.917
33
87.6287
0
3DFACE
8
plants3
10
-0.305223
20
-16.0331
30
79.9526
11
-0.753715
21
-17.7847
31
83.2658
12
-4.22214
22
-10.3615
32
87.2867
13
-2.84148
23
-8.06383
33
84.1693
0
3DFACE
8
plants3
10
-4.22214
20
-10.3615
30
87.2867
11
-4.69866
21
-9.51961
31
87.7629
12
-2.59086
22
-4.67544
32
79.9319
13
-2.84148
23
-8.06383
33
84.1693
0
3DFACE
8
plants3
10
1.47801
20
-8.32722
30
75.4438
11
-0.744676
21
-9.66635
31
76.9221
12
-1.27037
22
-4.39358
32
79.674
13
-0.853592
23
-3.31955
33
75.5364
0
3DFACE
8
plants3
10
-1.27037
20
-4.39358
30
79.674
11
-2.59086
21
-4.67544
31
79.9319
12
-1.62868
22
-2.09866
32
75.3669
13
-0.853592
23
-3.31955
33
75.5364
0
3DFACE
8
plants3
10
-0.744676
20
-9.66635
30
76.9221
11
-0.305223
21
-16.0331
31
79.9526
12
-2.84148
22
-8.06383
32
84.1693
13
-1.27037
23
-4.39358
33
79.674
0
3DFACE
8
plants3
10
-2.84148
20
-8.06383
30
84.1693
11
-2.59086
21
-4.67544
31
79.9319
12
-1.27037
22
-4.39358
32
79.674
13
-1.27037
23
-4.39358
33
79.674
0
3DFACE
8
plants3
10
1.49267
20
-6.548
30
71.9753
11
1.47801
21
-8.32722
31
75.4438
12
-0.853592
22
-3.31955
32
75.5364
13
0.157707
23
-2.40084
33
71.6094
0
3DFACE
8
plants3
10
0.157707
20
-2.40084
30
71.6094
11
-0.853592
21
-3.31955
31
75.5364
12
0.59658
22
-0.918694
32
71.6291
13
0.59658
23
-0.918694
33
71.6291
0
3DFACE
8
plants3
10
1.63754
20
-2.1195
30
62.4904
11
0.175452
21
-1.15915
31
62.4039
12
-0.710773
22
1.06619
32
54.5204
13
0.620995
23
0.721025
33
54.371
0
3DFACE
8
plants3
10
0.0559007
20
-1.59426
30
-0.475883
11
0.355022
21
4.47793
31
30.7131
12
-1.00345
22
4.2335
32
30.856
13
-1.21548
23
-2.18988
33
-0.442581
0
3DFACE
8
plants3
10
0.59658
20
-0.918694
30
71.6291
11
-0.745225
21
0.168341
31
71.2627
12
0.175452
22
-1.15915
32
62.4039
13
1.63754
23
-2.1195
33
62.4904
0
3DFACE
8
plants3
10
0.620995
20
0.721025
30
54.371
11
-0.710773
21
1.06619
31
54.5204
12
-1.00345
22
4.2335
32
30.856
13
0.355022
23
4.47793
33
30.7131
0
3DFACE
8
plants3
10
-22.5399
20
-34.4234
30
67.5992
11
-22.5482
21
-30.7364
31
74.4385
12
-19.2988
22
-29.2238
32
76.265
13
-19.2988
23
-29.2238
33
76.265
0
3DFACE
8
plants3
10
-18.1247
20
-32.9784
30
68.9495
11
-22.5399
21
-34.4234
31
67.5992
12
-19.2988
22
-29.2238
32
76.265
13
-14.1154
23
-28.3039
33
78.8879
0
3DFACE
8
plants3
10
-11.4878
20
-28.9398
30
65.986
11
-18.1247
21
-32.9784
31
68.9495
12
-14.1154
22
-28.3039
32
78.8879
13
-11.3626
23
-28.1618
33
77.668
0
3DFACE
8
plants3
10
-9.34164
20
-26.2141
30
71.3442
11
-11.4878
21
-28.9398
31
65.986
12
-11.3626
22
-28.1618
32
77.668
13
-7.76512
23
-25.0664
33
78.0363
0
3DFACE
8
plants3
10
-5.59377
20
-24.8904
30
67.844
11
-9.34164
21
-26.2141
31
71.3442
12
-7.76512
22
-25.0664
32
78.0363
13
-3.712
23
-24.0977
33
79.9588
0
3DFACE
8
plants3
10
-1.14467
20
-25.2343
30
77.3932
11
-5.59377
21
-24.8904
31
67.844
12
-3.712
22
-24.0977
32
79.9588
13
-0.753715
23
-17.7847
33
83.2658
0
3DFACE
8
plants3
10
1.62338
20
-24.4629
30
74.0465
11
-1.14467
21
-25.2343
31
77.3932
12
-0.753715
22
-17.7847
32
83.2658
13
-0.305223
23
-16.0331
33
79.9526
0
3DFACE
8
plants3
10
0.0972573
20
-14.2882
30
73.456
11
1.62338
21
-24.4629
31
74.0465
12
-0.305223
22
-16.0331
32
79.9526
13
-0.744676
23
-9.66635
33
76.9221
0
3DFACE
8
plants3
10
2.03061
20
-8.44897
30
68.5989
11
0.0972573
21
-14.2882
31
73.456
12
-0.744676
22
-9.66635
32
76.9221
13
1.47801
23
-8.32722
33
75.4438
0
3DFACE
8
plants3
10
2.03061
20
-8.44897
30
68.5989
11
1.47801
21
-8.32722
31
75.4438
12
1.49267
22
-6.548
32
71.9753
13
1.49267
23
-6.548
33
71.9753
0
3DFACE
8
plants3
10
0.157707
20
-2.40084
30
71.6094
11
0.59658
21
-0.918694
31
71.6291
12
1.63754
22
-2.1195
32
62.4904
13
1.06087
23
-3.31322
33
62.5272
0
3DFACE
8
plants3
10
1.06087
20
-3.31322
30
62.5272
11
1.63754
21
-2.1195
31
62.4904
12
0.620995
22
0.721025
32
54.371
13
0.27102
23
-0.606808
33
54.1994
0
3DFACE
8
plants3
10
0.27102
20
-0.606808
30
54.1994
11
0.620995
21
0.721025
31
54.371
12
0.355022
22
4.47793
32
30.7131
13
0.495088
23
3.22115
33
30.8611
0
3DFACE
8
plants3
10
0.371641
20
-2.67319
30
-0.087904
11
0.495088
21
3.22115
31
30.8611
12
0.355022
22
4.47793
32
30.7131
13
0.0559007
23
-1.59426
33
-0.475883
0
3DFACE
8
plants3
10
-0.853592
20
-3.31955
30
75.5364
11
-1.62868
21
-2.09866
31
75.3669
12
-0.745225
22
0.168341
32
71.2627
13
0.59658
23
-0.918694
33
71.6291
0
3DFACE
8
plants3
10
-37.7969
20
-52.7461
30
68.931
11
-38.4108
21
-56.7216
31
68.9653
12
-34.7518
22
-48.9954
32
71.5244
13
-31.8938
23
-44.791
33
70.2736
0
3DFACE
8
plants3
10
-34.7518
20
-48.9954
30
71.5244
11
-32.5175
21
-43.619
31
72.621
12
-31.8938
22
-44.791
32
70.2736
13
-31.8938
23
-44.791
33
70.2736
0
3DFACE
8
plants3
10
-32.3651
20
-27.2824
30
62.3886
11
-38.0488
21
-36.3521
31
65.1832
12
-29.1281
22
-28.8506
32
70.016
13
-26.6281
23
-25.051
33
69.3865
0
3DFACE
8
plants3
10
-29.1281
20
-28.8506
30
70.016
11
-26.0041
21
-24.7373
31
70.208
12
-26.6281
22
-25.051
32
69.3865
13
-26.6281
23
-25.051
33
69.3865
0
3DFACE
8
plants3
10
-38.0488
20
-36.3521
30
65.1832
11
-37.9038
21
-40.9392
31
65.1848
12
-30.5096
22
-37.5815
32
71.8874
13
-29.1281
23
-28.8506
33
70.016
0
3DFACE
8
plants3
10
-30.5096
20
-37.5815
30
71.8874
11
-30.1422
21
-33.5571
31
72.4528
12
-26.0041
22
-24.7373
32
70.208
13
-29.1281
23
-28.8506
33
70.016
0
3DFACE
8
plants3
10
-39.4297
20
-44.9735
30
67.1984
11
-38.2253
21
-46.8859
31
69.193
12
-31.8938
22
-44.791
32
70.2736
13
-32.2414
23
-40.638
33
72.0906
0
3DFACE
8
plants3
10
-31.8938
20
-44.791
30
70.2736
11
-32.5175
21
-43.619
31
72.621
12
-31.0782
22
-39.5457
32
73.0435
13
-32.2414
23
-40.638
33
72.0906
0
3DFACE
8
plants3
10
-38.2253
20
-46.8859
30
69.193
11
-37.7969
21
-52.7461
31
68.931
12
-31.8938
22
-44.791
32
70.2736
13
-31.8938
23
-44.791
33
70.2736
0
3DFACE
8
plants3
10
-37.9038
20
-40.9392
30
65.1848
11
-39.4297
21
-44.9735
31
67.1984
12
-32.2414
22
-40.638
32
72.0906
13
-30.5096
23
-37.5815
33
71.8874
0
3DFACE
8
plants3
10
-32.2414
20
-40.638
30
72.0906
11
-31.0782
21
-39.5457
31
73.0435
12
-30.1422
22
-33.5571
32
72.4528
13
-30.5096
23
-37.5815
33
71.8874
0
3DFACE
8
plants3
10
-29.5979
20
-26.5899
30
59.8939
11
-32.3651
21
-27.2824
31
62.3886
12
-26.6281
22
-25.051
32
69.3865
13
-24.9428
23
-22.3244
33
66.8118
0
3DFACE
8
plants3
10
-26.6281
20
-25.051
30
69.3865
11
-26.0041
21
-24.7373
31
70.208
12
-21.3659
22
-19.478
32
63.8786
13
-24.9428
23
-22.3244
33
66.8118
0
3DFACE
8
plants3
10
-24.4521
20
-19.4662
30
57.5139
11
-24.3062
21
-21.9711
31
59.1336
12
-22.0121
22
-18.396
32
63.3296
13
-19.9441
23
-17.197
33
59.7613
0
3DFACE
8
plants3
10
-22.0121
20
-18.396
30
63.3296
11
-21.3659
21
-19.478
31
63.8786
12
-18.621
22
-16.7733
32
60.197
13
-19.9441
23
-17.197
33
59.7613
0
3DFACE
8
plants3
10
-24.3062
20
-21.9711
30
59.1336
11
-29.5979
21
-26.5899
31
59.8939
12
-24.9428
22
-22.3244
32
66.8118
13
-22.0121
23
-18.396
33
63.3296
0
3DFACE
8
plants3
10
-24.9428
20
-22.3244
30
66.8118
11
-21.3659
21
-19.478
31
63.8786
12
-22.0121
22
-18.396
32
63.3296
13
-22.0121
23
-18.396
33
63.3296
0
3DFACE
8
plants3
10
-21.9724
20
-18.0137
30
54.8799
11
-24.4521
21
-19.4662
31
57.5139
12
-19.9441
22
-17.197
32
59.7613
13
-18.4686
23
-15.7335
33
56.16
0
3DFACE
8
plants3
10
-18.4686
20
-15.7335
30
56.16
11
-19.9441
21
-17.197
31
59.7613
12
-17.9166
22
-14.3252
32
56.4787
13
-17.9166
23
-14.3252
33
56.4787
0
3DFACE
8
plants3
10
-13.8712
20
-10.5758
30
49.1465
11
-12.2454
21
-10.2474
31
49.709
12
-8.52011
22
-3.72488
32
33.4092
13
-9.7764
23
-3.49326
33
32.877
0
3DFACE
8
plants3
10
-2.29236
20
-1.50917
30
-3.80173
11
-4.63882
21
-2.63177
31
-3.55517
12
-3.50426
22
-3.39185
32
-3.44345
13
-1.32501
23
-2.52417
33
-3.72244
0
3DFACE
8
plants3
10
-17.9166
20
-14.3252
30
56.4787
11
-16.195
21
-14.3671
31
56.8669
12
-12.2454
22
-10.2474
32
49.709
13
-13.8712
23
-10.5758
33
49.1465
0
3DFACE
8
plants3
10
-9.7764
20
-3.49326
30
32.877
11
-8.52011
21
-3.72488
31
33.4092
12
-3.50426
22
-3.39185
32
-3.44345
13
-4.63882
23
-2.63177
33
-3.55517
0
3DFACE
8
plants3
10
-43.4538
20
-60.5204
30
64.4369
11
-38.4108
21
-56.7216
31
68.9653
12
-37.7969
22
-52.7461
32
68.931
13
-37.7969
23
-52.7461
33
68.931
0
3DFACE
8
plants3
10
-43.4538
20
-55.7483
30
63.6415
11
-43.4538
21
-60.5204
31
64.4369
12
-37.7969
22
-52.7461
32
68.931
13
-38.2253
23
-46.8859
33
69.193
0
3DFACE
8
plants3
10
-46.9399
20
-57.3509
30
59.5141
11
-43.4538
21
-55.7483
31
63.6415
12
-38.2253
22
-46.8859
32
69.193
13
-39.4297
23
-44.9735
33
67.1984
0
3DFACE
8
plants3
10
-40.0545
20
-45.449
30
60.3244
11
-46.9399
21
-57.3509
31
59.5141
12
-39.4297
22
-44.9735
32
67.1984
13
-37.9038
23
-40.9392
33
65.1848
0
3DFACE
8
plants3
10
-41.1548
20
-43.3612
30
55.5829
11
-40.0545
21
-45.449
31
60.3244
12
-37.9038
22
-40.9392
32
65.1848
13
-38.0488
23
-36.3521
33
65.1832
0
3DFACE
8
plants3
10
-35.7908
20
-34.4989
30
57.258
11
-41.1548
21
-43.3612
31
55.5829
12
-38.0488
22
-36.3521
32
65.1832
13
-32.3651
23
-27.2824
33
62.3886
0
3DFACE
8
plants3
10
-33.3925
20
-31.5541
30
51.4903
11
-35.7908
21
-34.4989
31
57.258
12
-32.3651
22
-27.2824
32
62.3886
13
-29.5979
23
-26.5899
33
59.8939
0
3DFACE
8
plants3
10
-26.1415
20
-24.8272
30
54.384
11
-33.3925
21
-31.5541
31
51.4903
12
-29.5979
22
-26.5899
32
59.8939
13
-24.3062
23
-21.9711
33
59.1336
0
3DFACE
8
plants3
10
-22.0447
20
-19.0098
30
51.0976
11
-26.1415
21
-24.8272
31
54.384
12
-24.3062
22
-21.9711
32
59.1336
13
-24.4521
23
-19.4662
33
57.5139
0
3DFACE
8
plants3
10
-22.0447
20
-19.0098
30
51.0976
11
-24.4521
21
-19.4662
31
57.5139
12
-21.9724
22
-18.0137
32
54.8799
13
-21.9724
23
-18.0137
33
54.8799
0
3DFACE
8
plants3
10
-18.4686
20
-15.7335
30
56.16
11
-17.9166
21
-14.3252
31
56.4787
12
-13.8712
22
-10.5758
32
49.1465
13
-13.7053
23
-11.8631
33
48.8738
0
3DFACE
8
plants3
10
-13.7053
20
-11.8631
30
48.8738
11
-13.8712
21
-10.5758
31
49.1465
12
-9.7764
22
-3.49326
32
32.877
13
-9.78829
23
-4.76005
33
32.3201
0
3DFACE
8
plants3
10
-9.78829
20
-4.76005
30
32.3201
11
-9.7764
21
-3.49326
31
32.877
12
-4.63882
22
-2.63177
32
-3.55517
13
-5.20029
23
-3.7404
33
-3.64503
0
3DFACE
8
plants3
10
-3.01109
20
-2.45195
30
-3.8964
11
-5.20029
21
-3.7404
31
-3.64503
12
-4.63882
22
-2.63177
32
-3.55517
13
-2.29236
23
-1.50917
33
-3.80173
0
3DFACE
8
plants3
10
-19.9441
20
-17.197
30
59.7613
11
-18.621
21
-16.7733
31
60.197
12
-16.195
22
-14.3671
32
56.8669
13
-17.9166
23
-14.3252
33
56.4787
0
3DFACE
8
plants3
10
2.21062
20
-28.416
30
123.945
11
0.9961
21
-31.3337
31
125.058
12
1.59871
22
-22.7812
32
123.873
13
1.35532
23
-19.4684
33
120.4
0
3DFACE
8
plants3
10
1.59871
20
-22.7812
30
123.873
11
2.17814
21
-17.805
31
123.645
12
1.35532
22
-19.4684
32
120.4
13
1.35532
23
-19.4684
33
120.4
0
3DFACE
8
plants3
10
9.3363
20
-9.40208
30
104.872
11
9.52978
21
-18.2602
31
112.764
12
5.99369
22
-5.78782
32
115.305
13
5.80915
23
-2.59179
33
112.903
0
3DFACE
8
plants3
10
5.99369
20
-5.78782
30
115.305
11
5.45215
21
-1.77468
31
113.847
12
5.80915
22
-2.59179
32
112.903
13
5.80915
23
-2.59179
33
112.903
0
3DFACE
8
plants3
10
9.52978
20
-18.2602
30
112.764
11
7.51741
21
-21.3396
31
113.777
12
3.26409
22
-11.3767
32
120.323
13
5.99369
23
-5.78782
33
115.305
0
3DFACE
8
plants3
10
3.26409
20
-11.3767
30
120.323
11
4.64721
21
-8.23616
31
120.118
12
5.45215
22
-1.77468
32
113.847
13
5.99369
23
-5.78782
33
115.305
0
3DFACE
8
plants3
10
6.83843
20
-23.7076
30
117.962
11
5.08237
21
-23.6603
31
120.943
12
1.35532
22
-19.4684
32
120.4
13
3.22658
23
-13.9882
33
121.751
0
3DFACE
8
plants3
10
1.35532
20
-19.4684
30
120.4
11
2.17814
21
-17.805
31
123.645
12
2.79991
22
-12.386
32
122.568
13
3.22658
23
-13.9882
33
121.751
0
3DFACE
8
plants3
10
5.08237
20
-23.6603
30
120.943
11
2.21062
21
-28.416
31
123.945
12
1.35532
22
-19.4684
32
120.4
13
1.35532
23
-19.4684
33
120.4
0
3DFACE
8
plants3
10
7.51741
20
-21.3396
30
113.777
11
6.83843
21
-23.7076
31
117.962
12
3.22658
22
-13.9882
32
121.751
13
3.26409
23
-11.3767
33
120.323
0
3DFACE
8
plants3
10
3.22658
20
-13.9882
30
121.751
11
2.79991
21
-12.386
31
122.568
12
4.64721
22
-8.23616
32
120.118
13
3.26409
23
-11.3767
33
120.323
0
3DFACE
8
plants3
10
7.75684
20
-9.09492
30
100.448
11
9.3363
21
-9.40208
31
104.872
12
5.80915
22
-2.59179
32
112.903
13
5.85662
23
-1.31931
33
108.174
0
3DFACE
8
plants3
10
5.80915
20
-2.59179
30
112.903
11
5.45215
21
-1.77468
31
113.847
12
4.6127
22
0.544735
32
102.426
13
5.85662
23
-1.31931
33
108.174
0
3DFACE
8
plants3
10
7.13906
20
-3.49409
30
94.1142
11
5.91466
21
-4.40293
31
96.9631
12
5.55312
22
0.798697
32
101.558
13
4.73804
23
0.705223
33
95.6618
0
3DFACE
8
plants3
10
5.55312
20
0.798697
30
101.558
11
4.6127
21
0.544735
31
102.426
12
3.94324
22
1.66871
32
95.8515
13
4.73804
23
0.705223
33
95.6618
0
3DFACE
8
plants3
10
5.91466
20
-4.40293
30
96.9631
11
7.75684
21
-9.09492
31
100.448
12
5.85662
22
-1.31931
32
108.174
13
5.55312
23
0.798697
33
101.558
0
3DFACE
8
plants3
10
5.85662
20
-1.31931
30
108.174
11
4.6127
21
0.544735
31
102.426
12
5.55312
22
0.798697
32
101.558
13
5.55312
23
0.798697
33
101.558
0
3DFACE
8
plants3
10
6.0889
20
-2.83524
30
89.39
11
7.13906
21
-3.49409
31
94.1142
12
4.73804
22
0.705223
32
95.6618
13
4.45993
23
0.56543
33
89.8083
0
3DFACE
8
plants3
10
4.45993
20
0.56543
30
89.8083
11
4.73804
21
0.705223
31
95.6618
12
4.63406
22
1.87162
32
89.8017
13
4.63406
23
1.87162
33
89.8017
0
3DFACE
8
plants3
10
3.64028
20
2.48446
30
77.4436
11
2.58242
21
3.54966
31
77.7593
12
1.60317
22
4.61509
32
67.0336
13
2.62719
23
4.0783
33
66.5395
0
3DFACE
8
plants3
10
-0.135191
20
-1.79156
30
-1.49327
11
1.71497
21
3.15545
31
47.1858
12
0.582642
22
3.18011
32
47.5378
13
-1.25588
23
-2.10234
33
-1.39382
0
3DFACE
8
plants3
10
4.63406
20
1.87162
30
89.8017
11
3.3617
21
2.63754
31
89.9287
12
2.58242
22
3.54966
32
77.7593
13
3.64028
23
2.48446
33
77.4436
0
3DFACE
8
plants3
10
2.62719
20
4.0783
30
66.5395
11
1.60317
21
4.61509
31
67.0336
12
0.582642
22
3.18011
32
47.5378
13
1.71497
23
3.15545
33
47.1858
0
3DFACE
8
plants3
10
3.25444
20
-37.8238
30
120.737
11
0.9961
21
-31.3337
31
125.058
12
2.21062
22
-28.416
32
123.945
13
2.21062
23
-28.416
33
123.945
0
3DFACE
8
plants3
10
5.41663
20
-34.1471
30
116.364
11
3.25444
21
-37.8238
31
120.737
12
2.21062
22
-28.416
32
123.945
13
5.08237
23
-23.6603
33
120.943
0
3DFACE
8
plants3
10
7.45133
20
-38.3961
30
111.719
11
5.41663
21
-34.1471
31
116.364
12
5.08237
22
-23.6603
32
120.943
13
6.83843
23
-23.7076
33
117.962
0
3DFACE
8
plants3
10
7.40014
20
-25.5072
30
108.025
11
7.45133
21
-38.3961
31
111.719
12
6.83843
22
-23.7076
32
117.962
13
7.51741
23
-21.3396
33
113.777
0
3DFACE
8
plants3
10
9.28613
20
-26.6684
30
101.054
11
7.40014
21
-25.5072
31
108.025
12
7.51741
22
-21.3396
32
113.777
13
9.52978
23
-18.2602
33
112.764
0
3DFACE
8
plants3
10
9.04043
20
-17.9265
30
100.061
11
9.28613
21
-26.6684
31
101.054
12
9.52978
22
-18.2602
32
112.764
13
9.3363
23
-9.40208
33
104.872
0
3DFACE
8
plants3
10
8.81973
20
-17.7275
30
90.5401
11
9.04043
21
-17.9265
31
100.061
12
9.3363
22
-9.40208
32
104.872
13
7.75684
23
-9.09492
33
100.448
0
3DFACE
8
plants3
10
6.27227
20
-9.20588
30
91.2963
11
8.81973
21
-17.7275
31
90.5401
12
7.75684
22
-9.09492
32
100.448
13
5.91466
23
-4.40293
33
96.9631
0
3DFACE
8
plants3
10
5.9078
20
-5.29095
30
84.2325
11
6.27227
21
-9.20588
31
91.2963
12
5.91466
22
-4.40293
32
96.9631
13
7.13906
23
-3.49409
33
94.1142
0
3DFACE
8
plants3
10
5.9078
20
-5.29095
30
84.2325
11
7.13906
21
-3.49409
31
94.1142
12
6.0889
22
-2.83524
32
89.39
13
6.0889
23
-2.83524
33
89.39
0
3DFACE
8
plants3
10
4.45993
20
0.56543
30
89.8083
11
4.63406
21
1.87162
31
89.8017
12
3.64028
22
2.48446
32
77.4436
13
2.99876
23
1.53868
33
77.3059
0
3DFACE
8
plants3
10
2.99876
20
1.53868
30
77.3059
11
3.64028
21
2.48446
31
77.4436
12
2.62719
22
4.0783
32
66.5395
13
2.13548
23
2.95148
33
66.0362
0
3DFACE
8
plants3
10
2.13548
20
2.95148
30
66.0362
11
2.62719
21
4.0783
31
66.5395
12
1.71497
22
3.15545
32
47.1858
13
1.65661
23
2.05297
33
47.0871
0
3DFACE
8
plants3
10
-0.00670528
20
-2.73578
30
-1.23068
11
1.65661
21
2.05297
31
47.0871
12
1.71497
22
3.15545
32
47.1858
13
-0.135191
23
-1.79156
33
-1.49327
0
3DFACE
8
plants3
10
4.73804
20
0.705223
30
95.6618
11
3.94324
21
1.66871
31
95.8515
12
3.3617
22
2.63754
32
89.9287
13
4.63406
23
1.87162
33
89.8017
0
3DFACE
8
plants3
10
2.58225
20
53.3596
30
70.0716
11
2.33992
21
56.6363
31
68.0248
12
1.04099
22
50.5107
32
75.3954
13
-0.869611
23
46.3636
33
77.6295
0
3DFACE
8
plants3
10
1.04099
20
50.5107
30
75.3954
11
0.370114
21
45.6999
31
79.8324
12
-0.869611
22
46.3636
32
77.6295
13
-0.869611
23
46.3636
33
77.6295
0
3DFACE
8
plants3
10
6.53667
20
32.0443
30
72.328
11
7.12933
21
40.2159
31
73.2073
12
2.32735
22
32.0931
32
79.6876
13
1.62222
23
28.2704
33
79.6816
0
3DFACE
8
plants3
10
2.32735
20
32.0931
30
79.6876
11
1.11103
21
27.7985
31
80.5486
12
1.62222
22
28.2704
32
79.6816
13
1.62222
23
28.2704
33
79.6816
0
3DFACE
8
plants3
10
7.12933
20
40.2159
30
73.2073
11
5.53378
21
44.0023
31
71.9597
12
0.277233
22
40.2058
32
81.6293
13
2.32735
23
32.0931
33
79.6876
0
3DFACE
8
plants3
10
0.277233
20
40.2058
30
81.6293
11
1.26767
21
36.8259
31
83.4128
12
1.11103
22
27.7985
32
80.5486
13
2.32735
23
32.0931
33
79.6876
0
3DFACE
8
plants3
10
5.4256
20
46.8876
30
71.2477
11
4.32746
21
48.6717
31
72.6288
12
-0.869611
22
46.3636
32
77.6295
13
0.991066
23
43.1216
33
80.3059
0
3DFACE
8
plants3
10
-0.869611
20
46.3636
30
77.6295
11
0.370114
21
45.6999
31
79.8324
12
0.331583
22
42.0472
32
81.8965
13
0.991066
23
43.1216
33
80.3059
0
3DFACE
8
plants3
10
4.32746
20
48.6717
30
72.6288
11
2.58225
21
53.3596
31
70.0716
12
-0.869611
22
46.3636
32
77.6295
13
-0.869611
23
46.3636
33
77.6295
0
3DFACE
8
plants3
10
5.53378
20
44.0023
30
71.9597
11
5.4256
21
46.8876
31
71.2477
12
0.991066
22
43.1216
32
80.3059
13
0.277233
23
40.2058
33
81.6293
0
3DFACE
8
plants3
10
0.991066
20
43.1216
30
80.3059
11
0.331583
21
42.0472
31
81.8965
12
1.26767
22
36.8259
32
83.4128
13
0.277233
23
40.2058
33
81.6293
0
3DFACE
8
plants3
10
4.50257
20
30.8022
30
70.1511
11
6.53667
21
32.0443
31
72.328
12
1.62222
22
28.2704
32
79.6816
13
1.39231
23
25.652
33
77.6184
0
3DFACE
8
plants3
10
1.62222
20
28.2704
30
79.6816
11
1.11103
21
27.7985
31
80.5486
12
-0.481736
22
22.4178
32
75.3261
13
1.39231
23
25.652
33
77.6184
0
3DFACE
8
plants3
10
2.86319
20
23.5593
30
69.0045
11
1.59454
21
25.5208
31
70.2711
12
0.584511
22
21.728
32
74.8929
13
-0.521102
23
20.311
33
71.7019
0
3DFACE
8
plants3
10
0.584511
20
21.728
30
74.8929
11
-0.481736
21
22.4178
31
75.3261
12
-1.59257
22
19.5682
32
72.2473
13
-0.521102
23
20.311
33
71.7019
0
3DFACE
8
plants3
10
1.59454
20
25.5208
30
70.2711
11
4.50257
21
30.8022
31
70.1511
12
1.39231
22
25.652
32
77.6184
13
0.584511
23
21.728
33
74.8929
0
3DFACE
8
plants3
10
1.39231
20
25.652
30
77.6184
11
-0.481736
21
22.4178
31
75.3261
12
0.584511
22
21.728
32
74.8929
13
0.584511
23
21.728
33
74.8929
0
3DFACE
8
plants3
10
1.40607
20
21.7751
30
66.7706
11
2.86319
21
23.5593
31
69.0045
12
-0.521102
22
20.311
32
71.7019
13
2.87351
23
18.3315
33
66.9894
0
3DFACE
8
plants3
10
2.87351
20
18.3315
30
66.9894
11
-0.521102
21
20.311
31
71.7019
12
3.0618
22
16.9748
32
67.1553
13
3.0618
23
16.9748
33
67.1553
0
3DFACE
8
plants3
10
3.4721
20
13.8997
30
59.1494
11
2.20304
21
13.0305
31
59.2916
12
2.20229
22
10.5525
32
48.4676
13
3.44366
23
10.8379
33
48.1675
0
3DFACE
8
plants3
10
0.950487
20
11.2808
30
-2.12742
11
2.35609
21
13.4898
31
17.3019
12
1.02813
22
13.7219
32
17.5768
13
-0.336133
23
11.8244
33
-1.98201
0
3DFACE
8
plants3
10
3.0618
20
16.9748
30
67.1553
11
1.5725
21
16.4013
31
67.1088
12
2.20304
22
13.0305
32
59.2916
13
3.4721
23
13.8997
33
59.1494
0
3DFACE
8
plants3
10
3.44366
20
10.8379
30
48.1675
11
2.20229
21
10.5525
31
48.4676
12
1.02813
22
13.7219
32
17.5768
13
2.35609
23
13.4898
33
17.3019
0
3DFACE
8
plants3
10
5.35267
20
59.358
30
60.0839
11
2.33992
21
56.6363
31
68.0248
12
2.58225
22
53.3596
32
70.0716
13
2.58225
23
53.3596
33
70.0716
0
3DFACE
8
plants3
10
6.18002
20
55.3568
30
61.5512
11
5.35267
21
59.358
31
60.0839
12
2.58225
22
53.3596
32
70.0716
13
4.32746
23
48.6717
33
72.6288
0
3DFACE
8
plants3
10
8.23455
20
56.2496
30
55.7207
11
6.18002
21
55.3568
31
61.5512
12
4.32746
22
48.6717
32
72.6288
13
5.4256
23
46.8876
33
71.2477
0
3DFACE
8
plants3
10
5.60671
20
47.8194
30
65.5405
11
8.23455
21
56.2496
31
55.7207
12
5.4256
22
46.8876
32
71.2477
13
5.53378
23
44.0023
33
71.9597
0
3DFACE
8
plants3
10
6.78089
20
45.9402
30
61.4874
11
5.60671
21
47.8194
31
65.5405
12
5.53378
22
44.0023
32
71.9597
13
7.12933
23
40.2159
33
73.2073
0
3DFACE
8
plants3
10
4.64259
20
37.5914
30
67.4758
11
6.78089
21
45.9402
31
61.4874
12
7.12933
22
40.2159
32
73.2073
13
6.53667
23
32.0443
33
72.328
0
3DFACE
8
plants3
10
6.67434
20
36.3546
30
61.2081
11
4.64259
21
37.5914
31
67.4758
12
6.53667
22
32.0443
32
72.328
13
4.50257
23
30.8022
33
70.1511
0
3DFACE
8
plants3
10
2.52026
20
28.6136
30
65.2272
11
6.67434
21
36.3546
31
61.2081
12
4.50257
22
30.8022
32
70.1511
13
1.59454
23
25.5208
33
70.2711
0
3DFACE
8
plants3
10
1.38939
20
22.7881
30
62.9866
11
2.52026
21
28.6136
31
65.2272
12
1.59454
22
25.5208
32
70.2711
13
2.86319
23
23.5593
33
69.0045
0
3DFACE
8
plants3
10
1.38939
20
22.7881
30
62.9866
11
2.86319
21
23.5593
31
69.0045
12
1.40607
22
21.7751
32
66.7706
13
1.40607
23
21.7751
33
66.7706
0
3DFACE
8
plants3
10
2.87351
20
18.3315
30
66.9894
11
3.0618
21
16.9748
31
67.1553
12
3.4721
22
13.8997
32
59.1494
13
2.76006
23
14.9252
33
58.8529
0
3DFACE
8
plants3
10
2.76006
20
14.9252
30
58.8529
11
3.4721
21
13.8997
31
59.1494
12
3.44366
22
10.8379
32
48.1675
13
2.95906
23
12.0163
33
47.9876
0
3DFACE
8
plants3
10
2.95906
20
12.0163
30
47.9876
11
3.44366
21
10.8379
31
48.1675
12
2.35609
22
13.4898
32
17.3019
13
2.37177
23
14.5812
33
17.386
0
3DFACE
8
plants3
10
1.1689
20
12.2014
30
-1.82016
11
2.37177
21
14.5812
31
17.386
12
2.35609
22
13.4898
32
17.3019
13
0.950487
23
11.2808
33
-2.12742
0
3DFACE
8
plants3
10
-0.521102
20
20.311
30
71.7019
11
-1.59257
21
19.5682
31
72.2473
12
1.5725
22
16.4013
32
67.1088
13
3.0618
23
16.9748
33
67.1553
0
3DFACE
8
plants3
10
13.6508
20
23.4194
30
123.647
11
18.1484
21
24.2915
31
125.024
12
7.66489
22
19.4331
32
125.434
13
1.89836
23
18.2038
33
122.836
0
3DFACE
8
plants3
10
7.66489
20
19.4331
30
125.434
11
0.754336
21
16.501
31
124.861
12
1.89836
22
18.2038
32
122.836
13
1.89836
23
18.2038
33
122.836
0
3DFACE
8
plants3
10
-12.5236
20
17.0029
30
106.174
11
-2.62991
21
23.4827
31
113.632
12
-17.6833
22
11.016
32
113.736
13
-20.9124
23
8.6545
33
109.471
0
3DFACE
8
plants3
10
-17.6833
20
11.016
30
113.736
11
-21.8452
21
7.63633
31
109.904
12
-20.9124
22
8.6545
32
109.471
13
-20.9124
23
8.6545
33
109.471
0
3DFACE
8
plants3
10
-2.62991
20
23.4827
30
113.632
11
2.39816
21
23.5249
31
115.03
12
-7.13334
22
13.9384
32
121.359
13
-17.6833
23
11.016
33
113.736
0
3DFACE
8
plants3
10
-7.13334
20
13.9384
30
121.359
11
-7.67114
21
11.9684
31
122.443
12
-21.8452
22
7.63633
32
109.904
13
-17.6833
23
11.016
33
113.736
0
3DFACE
8
plants3
10
6.22913
20
25.1623
30
119.207
11
7.15518
21
23.6052
31
122.253
12
1.89836
22
18.2038
32
122.836
13
-3.58865
23
16.2621
33
123.25
0
3DFACE
8
plants3
10
1.89836
20
18.2038
30
122.836
11
0.754336
21
16.501
31
124.861
12
-4.23754
22
14.6239
32
123.925
13
-3.58865
23
16.2621
33
123.25
0
3DFACE
8
plants3
10
7.15518
20
23.6052
30
122.253
11
13.6508
21
23.4194
31
123.647
12
1.89836
22
18.2038
32
122.836
13
1.89836
23
18.2038
33
122.836
0
3DFACE
8
plants3
10
2.39816
20
23.5249
30
115.03
11
6.22913
21
25.1623
31
119.207
12
-3.58865
22
16.2621
32
123.25
13
-7.13334
23
13.9384
33
121.359
0
3DFACE
8
plants3
10
-3.58865
20
16.2621
30
123.25
11
-4.23754
21
14.6239
31
123.925
12
-7.67114
22
11.9684
32
122.443
13
-7.13334
23
13.9384
33
121.359
0
3DFACE
8
plants3
10
-12.242
20
15.936
30
101.131
11
-12.5236
21
17.0029
31
106.174
12
-20.9124
22
8.6545
32
109.471
13
-21.6346
23
8.00125
33
104.065
0
3DFACE
8
plants3
10
-20.9124
20
8.6545
30
109.471
11
-21.8452
21
7.63633
31
109.904
12
-22.2529
22
5.50202
32
97.2647
13
-21.6346
23
8.00125
33
104.065
0
3DFACE
8
plants3
10
-17.4085
20
11.5464
30
91.5586
11
-16.2311
21
10.6782
31
94.8634
12
-22.8589
22
6.42872
32
96.2894
13
-21.3849
23
5.79954
33
90.5176
0
3DFACE
8
plants3
10
-22.8589
20
6.42872
30
96.2894
11
-22.2529
21
5.50202
31
97.2647
12
-22.1523
22
4.20978
32
90.1085
13
-21.3849
23
5.79954
33
90.5176
0
3DFACE
8
plants3
10
-16.2311
20
10.6782
30
94.8634
11
-12.242
21
15.936
31
101.131
12
-21.6346
22
8.00125
32
104.065
13
-22.8589
23
6.42872
33
96.2894
0
3DFACE
8
plants3
10
-21.6346
20
8.00125
30
104.065
11
-22.2529
21
5.50202
31
97.2647
12
-22.8589
22
6.42872
32
96.2894
13
-22.8589
23
6.42872
33
96.2894
0
3DFACE
8
plants3
10
-16.8887
20
10.0744
30
86.4869
11
-17.4085
21
11.5464
31
91.5586
12
-21.3849
22
5.79954
32
90.5176
13
-20.1234
23
5.81268
33
84.8319
0
3DFACE
8
plants3
10
-20.1234
20
5.81268
30
84.8319
11
-21.3849
21
5.79954
31
90.5176
12
-21.7242
22
5.09315
32
84.0561
13
-21.7242
23
5.09315
33
84.0561
0
3DFACE
8
plants3
10
-19.9198
20
4.01968
30
71.5016
11
-20.6992
21
2.05389
31
71.1481
12
-19.6968
22
0.614268
32
59.9319
13
-19.4857
23
2.17718
33
59.7954
0
3DFACE
8
plants3
10
-6.19731
20
3.77486
30
-4.76095
11
-14.9885
21
5.35989
31
31.1858
12
-14.5287
22
4.03922
32
31.4828
13
-5.31174
23
2.7132
33
-4.51313
0
3DFACE
8
plants3
10
-21.7242
20
5.09315
30
84.0561
11
-22.0212
21
3.10092
31
83.6879
12
-20.6992
22
2.05389
32
71.1481
13
-19.9198
23
4.01968
33
71.5016
0
3DFACE
8
plants3
10
-19.4857
20
2.17718
30
59.7954
11
-19.6968
21
0.614268
31
59.9319
12
-14.5287
22
4.03922
32
31.4828
13
-14.9885
23
5.35989
33
31.1858
0
3DFACE
8
plants3
10
25.5094
20
30.8165
30
121.007
11
18.1484
21
24.2915
31
125.024
12
13.6508
22
23.4194
32
123.647
13
13.6508
23
23.4194
33
123.647
0
3DFACE
8
plants3
10
20.617
20
30.7108
30
118.473
11
25.5094
21
30.8165
31
121.007
12
13.6508
22
23.4194
32
123.647
13
7.15518
23
23.6052
33
122.253
0
3DFACE
8
plants3
10
17.3934
20
30.8799
30
108.418
11
20.617
21
30.7108
31
118.473
12
7.15518
22
23.6052
32
122.253
13
6.22913
23
25.1623
33
119.207
0
3DFACE
8
plants3
10
10.0907
20
26.8425
30
110.316
11
17.3934
21
30.8799
31
108.418
12
6.22913
22
25.1623
32
119.207
13
2.39816
23
23.5249
33
115.03
0
3DFACE
8
plants3
10
10.2304
20
28.6527
30
103.546
11
10.0907
21
26.8425
31
110.316
12
2.39816
22
23.5249
32
115.03
13
-2.62991
23
23.4827
33
113.632
0
3DFACE
8
plants3
10
-1.45199
20
21.9284
30
102.148
11
10.2304
21
28.6527
31
103.546
12
-2.62991
22
23.4827
32
113.632
13
-12.5236
23
17.0029
33
106.174
0
3DFACE
8
plants3
10
-1.08991
20
23.6058
30
96.534
11
-1.45199
21
21.9284
31
102.148
12
-12.5236
22
17.0029
32
106.174
13
-12.242
23
15.936
33
101.131
0
3DFACE
8
plants3
10
-9.88813
20
14.6855
30
92.1464
11
-1.08991
21
23.6058
31
96.534
12
-12.242
22
15.936
32
101.131
13
-16.2311
23
10.6782
33
94.8634
0
3DFACE
8
plants3
10
-13.0974
20
11.7982
30
82.8626
11
-9.88813
21
14.6855
31
92.1464
12
-16.2311
22
10.6782
32
94.8634
13
-17.4085
23
11.5464
33
91.5586
0
3DFACE
8
plants3
10
-13.0974
20
11.7982
30
82.8626
11
-17.4085
21
11.5464
31
91.5586
12
-16.8887
22
10.0744
32
86.4869
13
-16.8887
23
10.0744
33
86.4869
0
3DFACE
8
plants3
10
-20.1234
20
5.81268
30
84.8319
11
-21.7242
21
5.09315
31
84.0561
12
-19.9198
22
4.01968
32
71.5016
13
-18.4884
23
3.95937
33
71.9073
0
3DFACE
8
plants3
10
-18.4884
20
3.95937
30
71.9073
11
-19.9198
21
4.01968
31
71.5016
12
-19.4857
22
2.17718
32
59.7954
13
-17.856
23
2.42917
33
59.9534
0
3DFACE
8
plants3
10
-17.856
20
2.42917
30
59.9534
11
-19.4857
21
2.17718
31
59.7954
12
-14.9885
22
5.35989
32
31.1858
13
-13.6629
23
6.07224
33
31.7407
0
3DFACE
8
plants3
10
-5.20533
20
4.57444
30
-3.93868
11
-13.6629
21
6.07224
31
31.7407
12
-14.9885
22
5.35989
32
31.1858
13
-6.19731
23
3.77486
33
-4.76095
0
3DFACE
8
plants3
10
-21.3849
20
5.79954
30
90.5176
11
-22.1523
21
4.20978
31
90.1085
12
-22.0212
22
3.10092
32
83.6879
13
-21.7242
23
5.09315
33
84.0561
0
3DFACE
8
plants3
10
-17.3418
20
50.7006
30
85.2062
11
-16.8224
21
54.1934
31
86.0256
12
-15.3473
22
46.6705
32
86.6645
13
-14.0277
23
43.061
33
84.3311
0
3DFACE
8
plants3
10
-15.3473
20
46.6705
30
86.6645
11
-14.6703
21
41.6018
31
86.4847
12
-14.0277
22
43.061
32
84.3311
13
-14.0277
23
43.061
33
84.3311
0
3DFACE
8
plants3
10
-19.9488
20
29.5309
30
73.6192
11
-22.3521
21
37.2604
31
78.6841
12
-15.848
22
29.0579
32
80.8893
13
-14.6799
23
25.698
33
79.278
0
3DFACE
8
plants3
10
-15.848
20
29.0579
30
80.8893
11
-14.1199
21
25.2068
31
79.9395
12
-14.6799
22
25.698
32
79.278
13
-14.6799
23
25.698
33
79.278
0
3DFACE
8
plants3
10
-22.3521
20
37.2604
30
78.6841
11
-20.9877
21
41.2333
31
79.4818
12
-14.5578
22
36.3572
32
84.4384
13
-15.848
23
29.0579
33
80.8893
0
3DFACE
8
plants3
10
-14.5578
20
36.3572
30
84.4384
11
-15.2525
21
32.7159
31
84.225
12
-14.1199
22
25.2068
32
79.9395
13
-15.848
23
29.0579
33
80.8893
0
3DFACE
8
plants3
10
-21.0766
20
44.4346
30
82.3533
11
-19.2776
21
45.5886
31
84.475
12
-14.0277
22
43.061
32
84.3311
13
-15.2762
23
39.1019
33
85.4038
0
3DFACE
8
plants3
10
-14.0277
20
43.061
30
84.3311
11
-14.6703
21
41.6018
31
86.4847
12
-14.4265
22
37.866
32
85.9847
13
-15.2762
23
39.1019
33
85.4038
0
3DFACE
8
plants3
10
-19.2776
20
45.5886
30
84.475
11
-17.3418
21
50.7006
31
85.2062
12
-14.0277
22
43.061
32
84.3311
13
-14.0277
23
43.061
33
84.3311
0
3DFACE
8
plants3
10
-20.9877
20
41.2333
30
79.4818
11
-21.0766
21
44.4346
31
82.3533
12
-15.2762
22
39.1019
32
85.4038
13
-14.5578
23
36.3572
33
84.4384
0
3DFACE
8
plants3
10
-15.2762
20
39.1019
30
85.4038
11
-14.4265
21
37.866
31
85.9847
12
-15.2525
22
32.7159
32
84.225
13
-14.5578
23
36.3572
33
84.4384
0
3DFACE
8
plants3
10
-17.8908
20
29.2378
30
70.7129
11
-19.9488
21
29.5309
31
73.6192
12
-14.6799
22
25.698
32
79.278
13
-14.1519
23
23.7372
33
76.073
0
3DFACE
8
plants3
10
-14.6799
20
25.698
30
79.278
11
-14.1199
21
25.2068
31
79.9395
12
-11.9873
22
21.6029
32
72.2528
13
-14.1519
23
23.7372
33
76.073
0
3DFACE
8
plants3
10
-15.4075
20
23.1533
30
66.4666
11
-14.4406
21
24.9806
31
68.4667
12
-12.9154
22
20.8267
32
71.6109
13
-11.731
23
20.3705
33
67.6622
0
3DFACE
8
plants3
10
-12.9154
20
20.8267
30
71.6109
11
-11.9873
21
21.6029
31
72.2528
12
-10.6091
22
19.8108
32
67.8385
13
-11.731
23
20.3705
33
67.6622
0
3DFACE
8
plants3
10
-14.4406
20
24.9806
30
68.4667
11
-17.8908
21
29.2378
31
70.7129
12
-14.1519
22
23.7372
32
76.073
13
-12.9154
23
20.8267
33
71.6109
0
3DFACE
8
plants3
10
-14.1519
20
23.7372
30
76.073
11
-11.9873
21
21.6029
31
72.2528
12
-12.9154
22
20.8267
32
71.6109
13
-12.9154
23
20.8267
33
71.6109
0
3DFACE
8
plants3
10
-13.8269
20
22.251
30
63.3273
11
-15.4075
21
23.1533
31
66.4666
12
-11.731
22
20.3705
32
67.6622
13
-11.1549
23
19.7366
33
63.7113
0
3DFACE
8
plants3
10
-11.1549
20
19.7366
30
63.7113
11
-11.731
21
20.3705
31
67.6622
12
-11.0043
22
18.4049
32
63.699
13
-11.0043
23
18.4049
33
63.699
0
3DFACE
8
plants3
10
-9.09998
20
16.3665
30
55.3831
11
-7.66707
21
15.8401
31
55.6603
12
-5.74518
22
13.6073
32
48.4506
13
-6.9927
23
13.6128
33
48.0554
0
3DFACE
8
plants3
10
-3.92706
20
11.7629
30
-2.8963
11
-5.50228
21
14.7731
31
17.3883
12
-4.26197
22
15.2849
32
17.6925
13
-2.77449
23
12.5543
33
-2.76443
0
3DFACE
8
plants3
10
-11.0043
20
18.4049
30
63.699
11
-9.40288
21
18.2292
31
63.8603
12
-7.66707
22
15.8401
32
55.6603
13
-9.09998
23
16.3665
33
55.3831
0
3DFACE
8
plants3
10
-6.9927
20
13.6128
30
48.0554
11
-5.74518
21
13.6073
31
48.4506
12
-4.26197
22
15.2849
32
17.6925
13
-5.50228
23
14.7731
33
17.3883
0
3DFACE
8
plants3
10
-20.7977
20
58.8205
30
82.9549
11
-16.8224
21
54.1934
31
86.0256
12
-17.3418
22
50.7006
32
85.2062
13
-17.3418
23
50.7006
33
85.2062
0
3DFACE
8
plants3
10
-22.1605
20
54.8411
30
81.334
11
-20.7977
21
58.8205
31
82.9549
12
-17.3418
22
50.7006
32
85.2062
13
-19.2776
23
45.5886
33
84.475
0
3DFACE
8
plants3
10
-25.2834
20
57.3585
30
78.0606
11
-22.1605
21
54.8411
31
81.334
12
-19.2776
22
45.5886
32
84.475
13
-21.0766
23
44.4346
33
82.3533
0
3DFACE
8
plants3
10
-22.1986
20
46.3266
30
75.8395
11
-25.2834
21
57.3585
31
78.0606
12
-21.0766
22
44.4346
32
82.3533
13
-20.9877
23
41.2333
33
79.4818
0
3DFACE
8
plants3
10
-24.2254
20
45.5844
30
71.0041
11
-22.1986
21
46.3266
31
75.8395
12
-20.9877
22
41.2333
32
79.4818
13
-22.3521
23
37.2604
33
78.6841
0
3DFACE
8
plants3
10
-21.6078
20
37.1287
30
70.3608
11
-24.2254
21
45.5844
31
71.0041
12
-22.3521
22
37.2604
32
78.6841
13
-19.9488
23
29.5309
33
73.6192
0
3DFACE
8
plants3
10
-20.815
20
35.5889
30
63.9219
11
-21.6078
21
37.1287
31
70.3608
12
-19.9488
22
29.5309
32
73.6192
13
-17.8908
23
29.2378
33
70.7129
0
3DFACE
8
plants3
10
-15.8009
20
28.5904
30
64.5972
11
-20.815
21
35.5889
31
63.9219
12
-17.8908
22
29.2378
32
70.7129
13
-14.4406
23
24.9806
33
68.4667
0
3DFACE
8
plants3
10
-14.0021
20
23.9093
30
59.8384
11
-15.8009
21
28.5904
31
64.5972
12
-14.4406
22
24.9806
32
68.4667
13
-15.4075
23
23.1533
33
66.4666
0
3DFACE
8
plants3
10
-14.0021
20
23.9093
30
59.8384
11
-15.4075
21
23.1533
31
66.4666
12
-13.8269
22
22.251
32
63.3273
13
-13.8269
23
22.251
33
63.3273
0
3DFACE
8
plants3
10
-11.1549
20
19.7366
30
63.7113
11
-11.0043
21
18.4049
31
63.699
12
-9.09998
22
16.3665
32
55.3831
13
-8.63157
23
17.5287
33
55.3253
0
3DFACE
8
plants3
10
-8.63157
20
17.5287
30
55.3253
11
-9.09998
21
16.3665
31
55.3831
12
-6.9927
22
13.6128
32
48.0554
13
-6.71839
23
14.83
33
47.7409
0
3DFACE
8
plants3
10
-6.71839
20
14.83
30
47.7409
11
-6.9927
21
13.6128
31
48.0554
12
-5.50228
22
14.7731
32
17.3883
13
-5.72191
23
15.8436
33
17.3228
0
3DFACE
8
plants3
10
-4.33064
20
12.6563
30
-2.72749
11
-5.72191
21
15.8436
31
17.3228
12
-5.50228
22
14.7731
32
17.3883
13
-3.92706
23
11.7629
33
-2.8963
0
3DFACE
8
plants3
10
-11.731
20
20.3705
30
67.6622
11
-10.6091
21
19.8108
31
67.8385
12
-9.40288
22
18.2292
32
63.8603
13
-11.0043
23
18.4049
33
63.699
0
3DFACE
8
plants3
10
35.8242
20
27.6779
30
71.6189
11
36.7866
21
30.8208
31
72.23
12
32.7442
22
24.6609
32
73.143
13
29.9811
23
21.7763
33
71.3953
0
3DFACE
8
plants3
10
32.7442
20
24.6609
30
73.143
11
30.2256
21
20.429
31
73.2182
12
29.9811
22
21.7763
32
71.3953
13
29.9811
23
21.7763
33
71.3953
0
3DFACE
8
plants3
10
28.7839
20
8.594
30
62.3583
11
34.3436
21
14.8633
31
66.1904
12
25.8794
22
9.22838
32
68.8328
13
23.4222
23
6.54302
33
67.6755
0
3DFACE
8
plants3
10
25.8794
20
9.22838
30
68.8328
11
22.8274
21
6.25417
31
68.2944
12
23.4222
22
6.54302
32
67.6755
13
23.4222
23
6.54302
33
67.6755
0
3DFACE
8
plants3
10
34.3436
20
14.8633
30
66.1904
11
34.7555
21
18.6007
31
66.8306
12
27.9193
22
15.8821
32
71.6784
13
25.8794
23
9.22838
33
68.8328
0
3DFACE
8
plants3
10
27.9193
20
15.8821
30
71.6784
11
27.12
21
12.5873
31
71.5716
12
22.8274
22
6.25417
32
68.2944
13
25.8794
23
9.22838
33
68.8328
0
3DFACE
8
plants3
10
36.3623
20
21.4087
30
69.1408
11
35.4828
21
22.8372
31
71.0312
12
29.9811
22
21.7763
32
71.3953
13
29.6837
23
18.1182
33
72.3449
0
3DFACE
8
plants3
10
29.9811
20
21.7763
30
71.3953
11
30.2256
21
20.429
31
73.2182
12
28.5486
22
17.2469
32
72.9435
13
29.6837
23
18.1182
33
72.3449
0
3DFACE
8
plants3
10
35.4828
20
22.8372
30
71.0312
11
35.8242
21
27.6779
31
71.6189
12
29.9811
22
21.7763
32
71.3953
13
29.9811
23
21.7763
33
71.3953
0
3DFACE
8
plants3
10
34.7555
20
18.6007
30
66.8306
11
36.3623
21
21.4087
31
69.1408
12
29.6837
22
18.1182
32
72.3449
13
27.9193
23
15.8821
33
71.6784
0
3DFACE
8
plants3
10
29.6837
20
18.1182
30
72.3449
11
28.5486
21
17.2469
31
72.9435
12
27.12
22
12.5873
32
71.5716
13
27.9193
23
15.8821
33
71.6784
0
3DFACE
8
plants3
10
26.5719
20
8.71527
30
60.0671
11
28.7839
21
8.594
31
62.3583
12
23.4222
22
6.54302
32
67.6755
13
21.8675
23
4.89159
33
65.0736
0
3DFACE
8
plants3
10
23.4222
20
6.54302
30
67.6755
11
22.8274
21
6.25417
31
68.2944
12
18.7659
22
3.42647
32
62.0816
13
21.8675
23
4.89159
33
65.0736
0
3DFACE
8
plants3
10
21.6559
20
3.90085
30
56.876
11
21.7352
21
5.72959
31
58.5771
12
19.202
22
2.54372
32
61.4954
13
17.5657
23
2.3137
33
58.2622
0
3DFACE
8
plants3
10
19.202
20
2.54372
30
61.4954
11
18.7659
21
3.42647
31
62.0816
12
16.4058
22
2.07485
32
58.5158
13
17.5657
23
2.3137
33
58.2622
0
3DFACE
8
plants3
10
21.7352
20
5.72959
30
58.5771
11
26.5719
21
8.71527
31
60.0671
12
21.8675
22
4.89159
32
65.0736
13
19.202
23
2.54372
33
61.4954
0
3DFACE
8
plants3
10
21.8675
20
4.89159
30
65.0736
11
18.7659
21
3.42647
31
62.0816
12
19.202
22
2.54372
32
61.4954
13
19.202
23
2.54372
33
61.4954
0
3DFACE
8
plants3
10
19.5998
20
3.3892
30
54.3727
11
21.6559
21
3.90085
31
56.876
12
17.5657
22
2.3137
32
58.2622
13
16.3871
23
1.80032
33
54.9872
0
3DFACE
8
plants3
10
16.3871
20
1.80032
30
54.9872
11
17.5657
21
2.3137
31
58.2622
12
15.7529
22
0.683356
32
55.0345
13
15.7529
23
0.683356
33
55.0345
0
3DFACE
8
plants3
10
12.4092
20
-0.856932
30
48.2181
11
11.0047
21
-0.998249
31
48.5794
12
7.09418
22
0.0723031
32
32.6219
13
8.12872
23
-0.198833
33
32.193
0
3DFACE
8
plants3
10
2.46555
20
-4.347
30
-5.73374
11
4.42882
21
-1.54698
31
13.8202
12
3.58565
22
-0.833211
32
14.1538
13
1.78436
23
-3.41479
33
-5.56231
0
3DFACE
8
plants3
10
15.7529
20
0.683356
30
55.0345
11
14.3224
21
0.877987
31
55.2984
12
11.0047
22
-0.998249
32
48.5794
13
12.4092
23
-0.856932
33
48.2181
0
3DFACE
8
plants3
10
8.12872
20
-0.198833
30
32.193
11
7.09418
21
0.0723031
31
32.6219
12
3.58565
22
-0.833211
32
14.1538
13
4.42882
23
-1.54698
33
13.8202
0
3DFACE
8
plants3
10
41.6212
20
33.8925
30
69.1715
11
36.7866
21
30.8208
31
72.23
12
35.8242
22
27.6779
32
71.6189
13
35.8242
23
27.6779
33
71.6189
0
3DFACE
8
plants3
10
41.1134
20
30.1312
30
67.8357
11
41.6212
21
33.8925
31
69.1715
12
35.8242
22
27.6779
32
71.6189
13
35.4828
23
22.8372
33
71.0312
0
3DFACE
8
plants3
10
44.3931
20
31.5605
30
64.7438
11
41.1134
21
30.1312
31
67.8357
12
35.4828
22
22.8372
32
71.0312
13
36.3623
23
21.4087
33
69.1408
0
3DFACE
8
plants3
10
37.3164
20
22.6528
30
63.4824
11
44.3931
21
31.5605
31
64.7438
12
36.3623
22
21.4087
32
69.1408
13
34.7555
23
18.6007
33
66.8306
0
3DFACE
8
plants3
10
38.2444
20
21.469
30
59.2659
11
37.3164
21
22.6528
31
63.4824
12
34.7555
22
18.6007
32
66.8306
13
34.3436
23
14.8633
33
66.1904
0
3DFACE
8
plants3
10
32.7202
20
14.7196
30
59.2137
11
38.2444
21
21.469
31
59.2659
12
34.3436
22
14.8633
32
66.1904
13
28.7839
23
8.594
33
62.3583
0
3DFACE
8
plants3
10
30.7341
20
13.4145
30
53.8829
11
32.7202
21
14.7196
31
59.2137
12
28.7839
22
8.594
32
62.3583
13
26.5719
23
8.71527
33
60.0671
0
3DFACE
8
plants3
10
23.8395
20
8.46477
30
55.0769
11
30.7341
21
13.4145
31
53.8829
12
26.5719
22
8.71527
32
60.0671
13
21.7352
23
5.72959
33
58.5771
0
3DFACE
8
plants3
10
19.9868
20
4.70298
30
51.3519
11
23.8395
21
8.46477
31
55.0769
12
21.7352
22
5.72959
32
58.5771
13
21.6559
23
3.90085
33
56.876
0
3DFACE
8
plants3
10
19.9868
20
4.70298
30
51.3519
11
21.6559
21
3.90085
31
56.876
12
19.5998
22
3.3892
32
54.3727
13
19.5998
23
3.3892
33
54.3727
0
3DFACE
8
plants3
10
16.3871
20
1.80032
30
54.9872
11
15.7529
21
0.683356
31
55.0345
12
12.4092
22
-0.856932
32
48.2181
13
12.4373
23
0.24458
33
48.1645
0
3DFACE
8
plants3
10
12.4373
20
0.24458
30
48.1645
11
12.4092
21
-0.856932
31
48.2181
12
8.12872
22
-0.198833
32
32.193
13
8.31643
23
0.902759
33
31.9056
0
3DFACE
8
plants3
10
8.31643
20
0.902759
30
31.9056
11
8.12872
21
-0.198833
31
32.193
12
4.42882
22
-1.54698
32
13.8202
13
5.0153
23
-0.671927
33
13.7111
0
3DFACE
8
plants3
10
3.17012
20
-3.65873
30
-5.65261
11
5.0153
21
-0.671927
31
13.7111
12
4.42882
22
-1.54698
32
13.8202
13
2.46555
23
-4.347
33
-5.73374
0
3DFACE
8
plants3
10
17.5657
20
2.3137
30
58.2622
11
16.4058
21
2.07485
31
58.5158
12
14.3224
22
0.877987
32
55.2984
13
15.7529
23
0.683356
33
55.0345
0
3DFACE
8
plants3
10
-41.1218
20
55.681
30
46.9157
11
-41.6923
21
58.9669
31
44.6664
12
-38.8844
22
54.2797
32
51.7217
13
-37.8573
23
49.6227
33
54.2979
0
3DFACE
8
plants3
10
-38.8844
20
54.2797
30
51.7217
11
-37.0539
21
50.6194
31
56.0056
12
-37.8573
22
49.6227
32
54.2979
13
-37.8573
23
49.6227
33
54.2979
0
3DFACE
8
plants3
10
-34.3765
20
31.536
30
56.5195
11
-40.5199
21
39.8778
31
52.6401
12
-31.7847
22
34.596
32
63.3691
13
-29.1278
23
30.8979
33
63.9589
0
3DFACE
8
plants3
10
-31.7847
20
34.596
30
63.3691
11
-28.4852
21
30.8933
31
64.8248
12
-29.1278
22
30.8979
32
63.9589
13
-29.1278
23
30.8979
33
63.9589
0
3DFACE
8
plants3
10
-40.5199
20
39.8778
30
52.6401
11
-40.3443
21
43.7633
31
50.2041
12
-34.9256
22
44.5563
32
59.6758
13
-31.7847
23
34.596
33
63.3691
0
3DFACE
8
plants3
10
-34.9256
20
44.5563
30
59.6758
11
-33.6034
21
45.4688
31
60.6975
12
-28.4852
22
30.8933
32
64.8248
13
-31.7847
23
34.596
33
63.3691
0
3DFACE
8
plants3
10
-42.3093
20
48.0095
30
49.3282
11
-41.6494
21
50.8223
31
50.1881
12
-37.8573
22
49.6227
32
54.2979
13
-36.938
23
47.0944
33
57.9815
0
3DFACE
8
plants3
10
-37.8573
20
49.6227
30
54.2979
11
-37.0539
21
50.6194
31
56.0056
12
-35.8057
22
47.5996
32
58.8629
13
-36.938
23
47.0944
33
57.9815
0
3DFACE
8
plants3
10
-41.6494
20
50.8223
30
50.1881
11
-41.1218
21
55.681
31
46.9157
12
-37.8573
22
49.6227
32
54.2979
13
-37.8573
23
49.6227
33
54.2979
0
3DFACE
8
plants3
10
-40.3443
20
43.7633
30
50.2041
11
-42.3093
21
48.0095
31
49.3282
12
-36.938
22
47.0944
32
57.9815
13
-34.9256
23
44.5563
33
59.6758
0
3DFACE
8
plants3
10
-36.938
20
47.0944
30
57.9815
11
-35.8057
21
47.5996
31
58.8629
12
-33.6034
22
45.4688
32
60.6975
13
-34.9256
23
44.5563
33
59.6758
0
3DFACE
8
plants3
10
-32.2262
20
29.1434
30
54.5451
11
-34.3765
21
31.536
31
56.5195
12
-29.1278
22
30.8979
32
63.9589
13
-27.3444
23
27.5479
33
62.3774
0
3DFACE
8
plants3
10
-29.1278
20
30.8979
30
63.9589
11
-28.4852
21
30.8933
31
64.8248
12
-23.6685
22
24.0409
32
60.4571
13
-27.3444
23
27.5479
33
62.3774
0
3DFACE
8
plants3
10
-26.795
20
21.8365
30
54.5073
11
-26.746
21
24.7362
31
55.2205
12
-24.2713
22
22.815
32
60.3034
13
-22.1782
23
20.5989
33
57.2777
0
3DFACE
8
plants3
10
-24.2713
20
22.815
30
60.3034
11
-23.6685
21
24.0409
31
60.4571
12
-20.8351
22
20.3915
32
57.8003
13
-22.1782
23
20.5989
33
57.2777
0
3DFACE
8
plants3
10
-26.746
20
24.7362
30
55.2205
11
-32.2262
21
29.1434
31
54.5451
12
-27.3444
22
27.5479
32
62.3774
13
-24.2713
23
22.815
33
60.3034
0
3DFACE
8
plants3
10
-27.3444
20
27.5479
30
62.3774
11
-23.6685
21
24.0409
31
60.4571
12
-24.2713
22
22.815
32
60.3034
13
-24.2713
23
22.815
33
60.3034
0
3DFACE
8
plants3
10
-24.2732
20
19.7014
30
52.4389
11
-26.795
21
21.8365
31
54.5073
12
-22.1782
22
20.5989
32
57.2777
13
-20.6658
23
18.0994
33
54.319
0
3DFACE
8
plants3
10
-20.6658
20
18.0994
30
54.319
11
-22.1782
21
20.5989
31
57.2777
12
-20.0515
22
16.8942
32
55.0672
13
-20.0515
23
16.8942
33
55.0672
0
3DFACE
8
plants3
10
-15.8989
20
11.1184
30
49.2724
11
-14.2566
21
11.054
31
49.8777
12
-10.4178
22
8.47706
32
35.0456
13
-11.6666
23
8.03651
33
34.6436
0
3DFACE
8
plants3
10
-4.09838
20
-6.79777
30
0.879091
11
-7.03169
21
0.161496
31
17.0871
12
-5.95077
22
1.03106
32
17.12
13
-3.1751
23
-5.77594
33
0.60397
0
3DFACE
8
plants3
10
-20.0515
20
16.8942
30
55.0672
11
-18.3306
21
17.1266
31
55.3852
12
-14.2566
22
11.054
32
49.8777
13
-15.8989
23
11.1184
33
49.2724
0
3DFACE
8
plants3
10
-11.6666
20
8.03651
30
34.6436
11
-10.4178
21
8.47706
31
35.0456
12
-5.95077
22
1.03106
32
17.12
13
-7.03169
23
0.161496
33
17.0871
0
3DFACE
8
plants3
10
-45.3559
20
59.1326
30
37.8165
11
-41.6923
21
58.9669
31
44.6664
12
-41.1218
22
55.681
32
46.9157
13
-41.1218
23
55.681
33
46.9157
0
3DFACE
8
plants3
10
-45.1866
20
54.6964
30
39.7394
11
-45.3559
21
59.1326
31
37.8165
12
-41.1218
22
55.681
32
46.9157
13
-41.6494
23
50.8223
33
50.1881
0
3DFACE
8
plants3
10
-43.2317
20
46.8729
30
37.7115
11
-45.1866
21
54.6964
31
39.7394
12
-41.6494
22
50.8223
32
50.1881
13
-42.3093
23
48.0095
33
49.3282
0
3DFACE
8
plants3
10
-41.1231
20
44.7411
30
43.3467
11
-43.2317
21
46.8729
31
37.7115
12
-42.3093
22
48.0095
32
49.3282
13
-40.3443
23
43.7633
33
50.2041
0
3DFACE
8
plants3
10
-40.9703
20
40.3616
30
40.3722
11
-41.1231
21
44.7411
31
43.3467
12
-40.3443
22
43.7633
32
50.2041
13
-40.5199
23
39.8778
33
52.6401
0
3DFACE
8
plants3
10
-36.2952
20
34.4835
30
47.7009
11
-40.9703
21
40.3616
31
40.3722
12
-40.5199
22
39.8778
32
52.6401
13
-34.3765
23
31.536
33
56.5195
0
3DFACE
8
plants3
10
-36.2886
20
30.9478
30
45.0634
11
-36.2952
21
34.4835
31
47.7009
12
-34.3765
22
31.536
32
56.5195
13
-32.2262
23
29.1434
33
54.5451
0
3DFACE
8
plants3
10
-28.7351
20
25.8155
30
49.8388
11
-36.2886
21
30.9478
31
45.0634
12
-32.2262
22
29.1434
32
54.5451
13
-26.746
23
24.7362
33
55.2205
0
3DFACE
8
plants3
10
-24.4143
20
19.4067
30
48.5406
11
-28.7351
21
25.8155
31
49.8388
12
-26.746
22
24.7362
32
55.2205
13
-26.795
23
21.8365
33
54.5073
0
3DFACE
8
plants3
10
-24.4143
20
19.4067
30
48.5406
11
-26.795
21
21.8365
31
54.5073
12
-24.2732
22
19.7014
32
52.4389
13
-24.2732
23
19.7014
33
52.4389
0
3DFACE
8
plants3
10
-20.6658
20
18.0994
30
54.319
11
-20.0515
21
16.8942
31
55.0672
12
-15.8989
22
11.1184
32
49.2724
13
-15.7904
23
12.2518
33
48.5924
0
3DFACE
8
plants3
10
-15.7904
20
12.2518
30
48.5924
11
-15.8989
21
11.1184
31
49.2724
12
-11.6666
22
8.03651
32
34.6436
13
-11.7368
23
9.05116
33
33.7052
0
3DFACE
8
plants3
10
-11.7368
20
9.05116
30
33.7052
11
-11.6666
21
8.03651
31
34.6436
12
-7.03169
22
0.161496
32
17.0871
13
-7.6164
23
1.07247
33
16.4168
0
3DFACE
8
plants3
10
-4.85766
20
-5.96572
30
0.497595
11
-7.6164
21
1.07247
31
16.4168
12
-7.03169
22
0.161496
32
17.0871
13
-4.09838
23
-6.79777
33
0.879091
0
3DFACE
8
plants3
10
-22.1782
20
20.5989
30
57.2777
11
-20.8351
21
20.3915
31
57.8003
12
-18.3306
22
17.1266
32
55.3852
13
-20.0515
23
16.8942
33
55.0672
0
3DFACE
8
plants3
10
22.5181
20
-22.3558
30
84.5411
11
23.5324
21
-25.6851
31
84.7771
12
19.125
22
-18.7712
32
86.741
13
17.7432
23
-14.3708
33
85.8459
0
3DFACE
8
plants3
10
19.125
20
-18.7712
30
86.741
11
16.4148
21
-14.0485
31
87.4424
12
17.7432
22
-14.3708
32
85.8459
13
17.7432
23
-14.3708
33
85.8459
0
3DFACE
8
plants3
10
15.6349
20
-1.48909
30
76.432
11
21.174
21
-9.18582
31
80.1789
12
10.8683
22
0.370194
32
82.5514
13
8.88012
23
3.17176
33
80.0256
0
3DFACE
8
plants3
10
10.8683
20
0.370194
30
82.5514
11
8.064
21
3.67138
31
80.4705
12
8.88012
22
3.17176
32
80.0256
13
8.88012
23
3.17176
33
80.0256
0
3DFACE
8
plants3
10
21.174
20
-9.18582
30
80.1789
11
21.6322
21
-12.961
31
80.3247
12
13.8866
22
-8.11095
32
86.238
13
10.8683
23
0.370194
33
82.5514
0
3DFACE
8
plants3
10
13.8866
20
-8.11095
30
86.238
11
12.4153
21
-8.07846
31
87.06
12
8.064
22
3.67138
32
80.4705
13
10.8683
23
0.370194
33
82.5514
0
3DFACE
8
plants3
10
23.1469
20
-16.2316
30
82.6736
11
22.1005
21
-17.5285
31
84.6488
12
17.7432
22
-14.3708
32
85.8459
13
15.872
23
-10.7359
33
87.0259
0
3DFACE
8
plants3
10
17.7432
20
-14.3708
30
85.8459
11
16.4148
21
-14.0485
31
87.4424
12
14.6311
22
-10.5287
32
87.5838
13
15.872
23
-10.7359
33
87.0259
0
3DFACE
8
plants3
10
22.1005
20
-17.5285
30
84.6488
11
22.5181
21
-22.3558
31
84.5411
12
17.7432
22
-14.3708
32
85.8459
13
17.7432
23
-14.3708
33
85.8459
0
3DFACE
8
plants3
10
21.6322
20
-12.961
30
80.3247
11
23.1469
21
-16.2316
31
82.6736
12
15.872
22
-10.7359
32
87.0259
13
13.8866
23
-8.11095
33
86.238
0
3DFACE
8
plants3
10
15.872
20
-10.7359
30
87.0259
11
14.6311
21
-10.5287
31
87.5838
12
12.4153
22
-8.07846
32
87.06
13
13.8866
23
-8.11095
33
86.238
0
3DFACE
8
plants3
10
14.8813
20
-0.921857
30
72.7878
11
15.6349
21
-1.48909
31
76.432
12
8.88012
22
3.17176
32
80.0256
13
8.34069
23
4.54191
33
76.3001
0
3DFACE
8
plants3
10
8.88012
20
3.17176
30
80.0256
11
8.064
21
3.67138
31
80.4705
12
6.47176
22
5.92229
32
71.5338
13
8.34069
23
4.54191
33
76.3001
0
3DFACE
8
plants3
10
11.255
20
3.97567
30
66.7848
11
10.7291
21
2.51486
31
68.9145
12
7.09065
22
6.59094
32
70.9614
13
6.75452
23
6.47792
33
66.6076
0
3DFACE
8
plants3
10
7.09065
20
6.59094
30
70.9614
11
6.47176
21
5.92229
31
71.5338
12
5.53765
22
6.95631
32
66.4167
13
6.75452
23
6.47792
33
66.6076
0
3DFACE
8
plants3
10
10.7291
20
2.51486
30
68.9145
11
14.8813
21
-0.921857
31
72.7878
12
8.34069
22
4.54191
32
76.3001
13
7.09065
23
6.59094
33
70.9614
0
3DFACE
8
plants3
10
8.34069
20
4.54191
30
76.3001
11
6.47176
21
5.92229
31
71.5338
12
7.09065
22
6.59094
32
70.9614
13
7.09065
23
6.59094
33
70.9614
0
3DFACE
8
plants3
10
10.2282
20
4.34648
30
63.0724
11
11.255
21
3.97567
31
66.7848
12
6.75452
22
6.47792
32
66.6076
13
6.86569
23
6.55303
33
62.3628
0
3DFACE
8
plants3
10
6.86569
20
6.55303
30
62.3628
11
6.75452
21
6.47792
31
66.6076
12
6.20809
22
7.75262
32
62.0684
13
6.20809
23
7.75262
33
62.0684
0
3DFACE
8
plants3
10
5.57185
20
8.51848
30
52.8397
11
4.08165
21
8.96482
31
52.6833
12
4.37692
22
12.8688
32
34.5313
13
5.52668
23
12.8725
33
34.4283
0
3DFACE
8
plants3
10
7.73158
20
8.63896
30
-2.78449
11
9.53335
21
7.80829
31
-1.40618
12
8.67849
22
7.26511
32
-1.49998
13
7.03797
23
7.88536
33
-2.77769
0
3DFACE
8
plants3
10
6.20809
20
7.75262
30
62.0684
11
4.73963
21
7.85944
31
61.8198
12
4.08165
22
8.96482
32
52.6833
13
5.57185
23
8.51848
33
52.8397
0
3DFACE
8
plants3
10
5.52668
20
12.8725
30
34.4283
11
4.37692
21
12.8688
31
34.5313
12
8.67849
22
7.26511
32
-1.49998
13
9.53335
23
7.80829
33
-1.40618
0
3DFACE
8
plants3
10
28.8787
20
-29.651
30
80.8122
11
23.5324
21
-25.6851
31
84.7771
12
22.5181
22
-22.3558
32
84.5411
13
22.5181
23
-22.3558
33
84.5411
0
3DFACE
8
plants3
10
28.3849
20
-25.7842
30
79.836
11
28.8787
21
-29.651
31
80.8122
12
22.5181
22
-22.3558
32
84.5411
13
22.1005
23
-17.5285
33
84.6488
0
3DFACE
8
plants3
10
28.2246
20
-21.7967
30
73.2495
11
28.3849
21
-25.7842
31
79.836
12
22.1005
22
-17.5285
32
84.6488
13
23.1469
23
-16.2316
33
82.6736
0
3DFACE
8
plants3
10
24.683
20
-17.3075
30
75.7489
11
28.2246
21
-21.7967
31
73.2495
12
23.1469
22
-16.2316
32
82.6736
13
21.6322
23
-12.961
33
80.3247
0
3DFACE
8
plants3
10
25.9996
20
-16.1099
30
70.9574
11
24.683
21
-17.3075
31
75.7489
12
21.6322
22
-12.961
32
80.3247
13
21.174
23
-9.18582
33
80.1789
0
3DFACE
8
plants3
10
20.1374
20
-8.19957
30
71.8057
11
25.9996
21
-16.1099
31
70.9574
12
21.174
22
-9.18582
32
80.1789
13
15.6349
23
-1.48909
33
76.432
0
3DFACE
8
plants3
10
21.3778
20
-7.36531
30
67.7943
11
20.1374
21
-8.19957
31
71.8057
12
15.6349
22
-1.48909
32
76.432
13
14.8813
23
-0.921857
33
72.7878
0
3DFACE
8
plants3
10
14.1668
20
-1.16207
30
65.9952
11
21.3778
21
-7.36531
31
67.7943
12
14.8813
22
-0.921857
32
72.7878
13
10.7291
23
2.51486
33
68.9145
0
3DFACE
8
plants3
10
11.7948
20
2.43192
30
59.8961
11
14.1668
21
-1.16207
31
65.9952
12
10.7291
22
2.51486
32
68.9145
13
11.255
23
3.97567
33
66.7848
0
3DFACE
8
plants3
10
11.7948
20
2.43192
30
59.8961
11
11.255
21
3.97567
31
66.7848
12
10.2282
22
4.34648
32
63.0724
13
10.2282
23
4.34648
33
63.0724
0
3DFACE
8
plants3
10
6.86569
20
6.55303
30
62.3628
11
6.20809
21
7.75262
31
62.0684
12
5.57185
22
8.51848
32
52.8397
13
5.64991
23
7.43646
33
52.8855
0
3DFACE
8
plants3
10
5.64991
20
7.43646
30
52.8855
11
5.57185
21
8.51848
31
52.8397
12
5.52668
22
12.8725
32
34.4283
13
5.84752
23
11.7185
33
34.2708
0
3DFACE
8
plants3
10
5.84752
20
11.7185
30
34.2708
11
5.52668
21
12.8725
31
34.4283
12
9.53335
22
7.80829
32
-1.40618
13
10.0877
23
6.91077
33
-0.980951
0
3DFACE
8
plants3
10
8.39558
20
7.86704
30
-2.35318
11
10.0877
21
6.91077
31
-0.980951
12
9.53335
22
7.80829
32
-1.40618
13
7.73158
23
8.63896
33
-2.78449
0
3DFACE
8
plants3
10
6.75452
20
6.47792
30
66.6076
11
5.53765
21
6.95631
31
66.4167
12
4.73963
22
7.85944
32
61.8198
13
6.20809
23
7.75262
33
62.0684
0
3DFACE
8
plants3
10
-22.3583
20
-32.958
30
97.8046
11
-20.5607
21
-35.1469
31
98.6416
12
-23.5968
22
-28.971
32
97.6652
13
-23.834
23
-26.511
33
95.1141
0
3DFACE
8
plants3
10
-23.5968
20
-28.971
30
97.6652
11
-25.5456
21
-25.7527
31
97.1617
12
-23.834
22
-26.511
32
95.1141
13
-23.834
23
-26.511
33
95.1141
0
3DFACE
8
plants3
10
-31.2141
20
-16.5396
30
79.1463
11
-29.3553
21
-27.6256
31
87.7106
12
-31.1193
22
-16.0473
32
89.1335
13
-31.549
23
-13.7289
33
87.3357
0
3DFACE
8
plants3
10
-31.1193
20
-16.0473
30
89.1335
11
-31.679
21
-13.1177
31
88.0574
12
-31.549
22
-13.7289
32
87.3357
13
-31.549
23
-13.7289
33
87.3357
0
3DFACE
8
plants3
10
-29.3553
20
-27.6256
30
87.7106
11
-26.9931
21
-29.1971
31
89.0306
12
-28.0998
22
-19.2921
32
93.5759
13
-31.1193
23
-16.0473
33
89.1335
0
3DFACE
8
plants3
10
-28.0998
20
-19.2921
30
93.5759
11
-30.1219
21
-17.54
31
92.9764
12
-31.679
22
-13.1177
32
88.0574
13
-31.1193
23
-16.0473
33
89.1335
0
3DFACE
8
plants3
10
-26.4401
20
-30.793
30
92.2665
11
-25.576
21
-30.4037
31
94.7981
12
-23.834
22
-26.511
32
95.1141
13
-27.225
23
-23.3773
33
95.411
0
3DFACE
8
plants3
10
-23.834
20
-26.511
30
95.1141
11
-25.5456
21
-25.7527
31
97.1617
12
-27.8045
22
-19.9439
32
95.3241
13
-27.225
23
-23.3773
33
95.411
0
3DFACE
8
plants3
10
-25.576
20
-30.4037
30
94.7981
11
-22.3583
21
-32.958
31
97.8046
12
-23.834
22
-26.511
32
95.1141
13
-23.834
23
-26.511
33
95.1141
0
3DFACE
8
plants3
10
-26.9931
20
-29.1971
30
89.0306
11
-26.4401
21
-30.793
31
92.2665
12
-27.225
22
-23.3773
32
95.411
13
-28.0998
23
-19.2921
33
93.5759
0
3DFACE
8
plants3
10
-27.225
20
-23.3773
30
95.411
11
-27.8045
21
-19.9439
31
95.3241
12
-30.1219
22
-17.54
32
92.9764
13
-28.0998
23
-19.2921
33
93.5759
0
3DFACE
8
plants3
10
-29.3114
20
-15.7034
30
76.3548
11
-31.2141
21
-16.5396
31
79.1463
12
-31.549
22
-13.7289
32
87.3357
13
-31.1746
23
-12.6764
33
83.9063
0
3DFACE
8
plants3
10
-31.549
20
-13.7289
30
87.3357
11
-31.679
21
-13.1177
31
88.0574
12
-30.133
22
-8.39292
32
78.1039
13
-31.1746
23
-12.6764
33
83.9063
0
3DFACE
8
plants3
10
-29.4713
20
-11.4673
30
71.7612
11
-28.7101
21
-11.8667
31
74.1137
12
-30.8055
22
-8.4438
32
77.2554
13
-29.1324
23
-8.02683
33
73.2534
0
3DFACE
8
plants3
10
-30.8055
20
-8.4438
30
77.2554
11
-30.133
21
-8.39292
31
78.1039
12
-28.8342
22
-7.1628
32
73.5352
13
-29.1324
23
-8.02683
33
73.2534
0
3DFACE
8
plants3
10
-28.7101
20
-11.8667
30
74.1137
11
-29.3114
21
-15.7034
31
76.3548
12
-31.1746
22
-12.6764
32
83.9063
13
-30.8055
23
-8.4438
33
77.2554
0
3DFACE
8
plants3
10
-31.1746
20
-12.6764
30
83.9063
11
-30.133
21
-8.39292
31
78.1039
12
-30.8055
22
-8.4438
32
77.2554
13
-30.8055
23
-8.4438
33
77.2554
0
3DFACE
8
plants3
10
-28.0434
20
-10.5266
30
68.6178
11
-29.4713
21
-11.4673
31
71.7612
12
-29.1324
22
-8.02683
32
73.2534
13
-27.8758
23
-7.79168
33
69.1579
0
3DFACE
8
plants3
10
-27.8758
20
-7.79168
30
69.1579
11
-29.1324
21
-8.02683
31
73.2534
12
-28.4138
22
-6.95534
32
69.0586
13
-28.4138
23
-6.95534
33
69.0586
0
3DFACE
8
plants3
10
-25.9359
20
-4.42526
30
60.4702
11
-25.2666
21
-4.73144
31
60.8993
12
-23.2166
22
-1.96949
32
53.4508
13
-23.7752
23
-2.59495
33
52.8809
0
3DFACE
8
plants3
10
-12.5311
20
-6.37094
30
-5.75835
11
-19.554
21
-0.621905
31
21.7542
12
-18.7283
22
-0.307027
32
22.2694
13
-11.5685
23
-6.27545
33
-5.41179
0
3DFACE
8
plants3
10
-28.4138
20
-6.95534
30
69.0586
11
-27.6676
21
-6.09018
31
69.4161
12
-25.2666
22
-4.73144
32
60.8993
13
-25.9359
23
-4.42526
33
60.4702
0
3DFACE
8
plants3
10
-23.7752
20
-2.59495
30
52.8809
11
-23.2166
21
-1.96949
31
53.4508
12
-18.7283
22
-0.307027
32
22.2694
13
-19.554
23
-0.621905
33
21.7542
0
3DFACE
8
plants3
10
-19.0934
20
-42.4207
30
96.3717
11
-20.5607
21
-35.1469
31
98.6416
12
-22.3583
22
-32.958
32
97.8046
13
-22.3583
23
-32.958
33
97.8046
0
3DFACE
8
plants3
10
-21.6555
20
-38.2783
30
92.4243
11
-19.0934
21
-42.4207
31
96.3717
12
-22.3583
22
-32.958
32
97.8046
13
-25.576
23
-30.4037
33
94.7981
0
3DFACE
8
plants3
10
-20.6955
20
-43.5802
30
88.9915
11
-21.6555
21
-38.2783
31
92.4243
12
-25.576
22
-30.4037
32
94.7981
13
-26.4401
23
-30.793
33
92.2665
0
3DFACE
8
plants3
10
-24.6417
20
-31.7376
30
85.1355
11
-20.6955
21
-43.5802
31
88.9915
12
-26.4401
22
-30.793
32
92.2665
13
-26.9931
23
-29.1971
33
89.0306
0
3DFACE
8
plants3
10
-22.3345
20
-32.4898
30
75.1083
11
-24.6417
21
-31.7376
31
85.1355
12
-26.9931
22
-29.1971
32
89.0306
13
-29.3553
23
-27.6256
33
87.7106
0
3DFACE
8
plants3
10
-27.5414
20
-22.0207
30
76.1418
11
-22.3345
21
-32.4898
31
75.1083
12
-29.3553
22
-27.6256
32
87.7106
13
-31.2141
23
-16.5396
33
79.1463
0
3DFACE
8
plants3
10
-25.8114
20
-21.4137
30
69.4084
11
-27.5414
21
-22.0207
31
76.1418
12
-31.2141
22
-16.5396
32
79.1463
13
-29.3114
23
-15.7034
33
76.3548
0
3DFACE
8
plants3
10
-26.5522
20
-14.9724
30
70.1938
11
-25.8114
21
-21.4137
31
69.4084
12
-29.3114
22
-15.7034
32
76.3548
13
-28.7101
23
-11.8667
33
74.1137
0
3DFACE
8
plants3
10
-26.2692
20
-11.9162
30
65.0903
11
-26.5522
21
-14.9724
31
70.1938
12
-28.7101
22
-11.8667
32
74.1137
13
-29.4713
23
-11.4673
33
71.7612
0
3DFACE
8
plants3
10
-26.2692
20
-11.9162
30
65.0903
11
-29.4713
21
-11.4673
31
71.7612
12
-28.0434
22
-10.5266
32
68.6178
13
-28.0434
23
-10.5266
33
68.6178
0
3DFACE
8
plants3
10
-27.8758
20
-7.79168
30
69.1579
11
-28.4138
21
-6.95534
31
69.0586
12
-25.9359
22
-4.42526
32
60.4702
13
-24.8994
23
-6.18845
33
60.5617
0
3DFACE
8
plants3
10
-24.8994
20
-6.18845
30
60.5617
11
-25.9359
21
-4.42526
31
60.4702
12
-23.7752
22
-2.59495
32
52.8809
13
-22.9553
23
-3.19995
33
52.6845
0
3DFACE
8
plants3
10
-22.9553
20
-3.19995
30
52.6845
11
-23.7752
21
-2.59495
31
52.8809
12
-19.554
22
-0.621905
32
21.7542
13
-19.152
23
-1.34784
33
21.7429
0
3DFACE
8
plants3
10
-12.3865
20
-7.05705
30
-5.56275
11
-19.152
21
-1.34784
31
21.7429
12
-19.554
22
-0.621905
32
21.7542
13
-12.5311
23
-6.37094
33
-5.75835
0
3DFACE
8
plants3
10
-29.1324
20
-8.02683
30
73.2534
11
-28.8342
21
-7.1628
31
73.5352
12
-27.6676
22
-6.09018
32
69.4161
13
-28.4138
23
-6.95534
33
69.0586
0
ENDSEC
0
EOF
