# Wavefront OBJ exported by MilkShape 3D

mtllib mis11.mtl

v 0.037220 0.115379 -1.659132
v -0.037220 0.115379 -1.659132
v -0.074439 0.036758 -1.659132
v -0.037220 -0.023868 -1.659132
v 0.037220 -0.023868 -1.659132
v 0.074439 0.036758 -1.659132
v 0.181559 -0.027867 1.159890
v 0.090780 0.208997 1.159890
v 0.090780 0.208997 -0.942825
v 0.181559 -0.027372 -0.942825
v 0.095224 -0.004768 1.453816
v 0.047612 0.133590 1.453816
v 0.090780 0.208997 1.159890
v 0.000000 0.039183 1.524399
v 0.047612 0.133590 1.453816
v 0.185138 -0.002030 -1.249730
v 0.092569 0.255634 -1.249730
v 0.037220 0.115379 -1.659132
v 0.074439 0.036758 -1.659132
v -0.092569 0.255634 -1.249730
v -0.185138 -0.002030 -1.249730
v -0.074439 0.036758 -1.659132
v -0.037220 0.115379 -1.659132
v -0.090780 0.208997 -0.942825
v -0.181559 -0.027372 -0.942825
v -0.090780 0.208997 1.159890
v -0.181559 -0.027867 1.159890
v -0.047612 0.133590 1.453816
v -0.095224 -0.004768 1.453816
v 0.000000 0.039183 1.524399
v -0.095224 -0.004768 1.453816
v -0.047612 0.133590 1.453816
v -0.092569 -0.094296 -1.249730
v -0.037220 -0.023868 -1.659132
v -0.090780 -0.130631 -0.942825
v -0.092569 -0.094296 -1.249730
v -0.090780 -0.130631 1.159890
v -0.090780 -0.130631 -0.942825
v -0.095224 -0.004768 1.453816
v -0.047612 -0.055224 1.453816
v -0.090780 -0.130631 1.159890
v 0.000000 0.039183 1.524399
v -0.047612 -0.055224 1.453816
v -0.092569 -0.094296 -1.249730
v 0.092569 -0.094296 -1.249730
v 0.037220 -0.023868 -1.659132
v -0.037220 -0.023868 -1.659132
v -0.090780 -0.130631 -0.942825
v 0.090780 -0.130631 -0.942825
v 0.092569 -0.094296 -1.249730
v -0.090780 -0.130631 1.159890
v 0.090780 -0.130631 1.159890
v 0.090780 -0.130631 -0.942825
v -0.047612 -0.055224 1.453816
v 0.047612 -0.055224 1.453816
v 0.090780 -0.130631 1.159890
v 0.000000 0.039183 1.524399
v 0.047612 -0.055224 1.453816
v -0.047612 -0.055224 1.453816
v 0.092569 -0.094296 -1.249730
v 0.090780 -0.130631 -0.942825
v 0.090780 -0.130631 1.159890
v 0.047612 -0.055224 1.453816
v 0.000000 0.039183 1.524399
v 0.090780 0.208997 1.159890
v -0.090780 0.208997 1.159890
v -0.090780 0.208997 -0.942825
v 0.090780 0.208997 -0.942825
v -0.092569 0.255634 -1.249730
v 0.092569 0.255634 -1.249730
v -0.037220 0.115379 -1.659132
v 0.037220 0.115379 -1.659132
v 0.000000 0.039183 1.524399
v -0.047612 0.133590 1.453816
v 0.047612 0.133590 1.453816
v 0.047612 0.133590 1.453816
v -0.047612 0.133590 1.453816
v 0.090780 0.208997 1.159890
v -0.072266 0.227410 -1.247618
v -0.072266 0.402986 -0.619823
v -0.072266 0.186292 -0.603920
v 0.072266 0.402986 -0.619823
v 0.072266 0.227410 -1.247618
v 0.072266 0.186292 -0.603920
v -0.072266 0.402986 -0.619823
v 0.072266 0.402986 -0.619823
v 0.072266 0.186292 -0.603920
v -0.072266 0.186292 -0.603920
v 0.072266 0.227410 -1.247618
v 0.072266 0.402986 -0.619823
v -0.072266 0.402986 -0.619823
v -0.072266 0.227410 -1.247618
v -0.078270 -0.081369 0.083006
v -0.079407 -0.100270 -0.040850
v 0.894053 -0.009472 -0.423344
v -0.080540 -0.119172 0.083006
v -0.079404 -0.100270 0.206861
v 0.920653 -0.011070 -0.305844
v 0.920653 -0.011070 -0.305844
v -0.079404 -0.100270 0.206861
v 0.894053 -0.009472 -0.423344
v -0.079407 -0.100270 -0.040850
v 0.002221 -0.031085 -1.327415
v 0.003303 -0.013083 -1.404687
v 0.002221 -0.031085 -1.481959
v 0.347563 -0.051842 -1.563516
v 0.356996 -0.052409 -1.467899
v 0.002221 -0.031085 -1.481959
v 0.001139 -0.049086 -1.404687
v 0.002221 -0.031085 -1.327415
v 0.356996 -0.052409 -1.467899
v 0.347563 -0.051842 -1.563516
v 0.000000 0.148693 -1.221071
v 0.000000 0.564637 -1.379705
v 0.000000 0.564637 -1.494246
v 0.000000 0.148693 -1.521071
v 0.034680 0.148693 -1.371071
v -0.034680 0.148693 -1.371071
v -0.903917 -0.009472 -0.433570
v 0.065489 -0.100270 -0.040918
v 0.063057 -0.081369 0.082920
v -0.931745 -0.011070 -0.316355
v 0.062896 -0.100270 0.206780
v 0.065328 -0.119172 0.082943
v 0.062896 -0.100270 0.206780
v -0.931745 -0.011070 -0.316355
v 0.065489 -0.100270 -0.040918
v -0.903917 -0.009472 -0.433570
v -0.356996 -0.052409 -1.467899
v -0.347563 -0.051842 -1.563516
v -0.002221 -0.031085 -1.481959
v -0.003303 -0.013083 -1.404687
v -0.002221 -0.031085 -1.327415
v -0.347563 -0.051842 -1.563516
v -0.356996 -0.052409 -1.467899
v -0.002221 -0.031085 -1.327415
v -0.001139 -0.049086 -1.404687
v -0.002221 -0.031085 -1.481959
# 138 vertices

vt 0.601563 0.304687
vt 0.773438 0.257812
vt 0.742188 0.304687
vt 0.742188 0.195312
vt 0.601563 0.195312
vt 0.554688 0.257812
vt 0.101563 0.789062
vt 0.226563 0.179687
vt 0.226563 0.789062
vt 0.101563 0.179687
vt 0.117188 0.851562
vt 0.195313 0.851562
vt 0.148438 0.867187
vt 0.101563 0.117187
vt 0.179688 0.007812
vt 0.257813 0.117187
vt 0.148438 0.007812
vt 0.101563 0.007812
vt 0.054688 0.117187
vt 0.054688 0.179687
vt 0.054688 0.789062
vt 0.085938 0.851562
vt 0.120888 0.117187
vt 0.066201 0.117187
vt 0.132813 0.007812
vt 0.120888 0.179687
vt 0.066201 0.179687
vt 0.120888 0.789062
vt 0.066201 0.789062
vt 0.179688 0.851562
vt 0.132813 0.851562
vt 0.445313 0.789062
vt 0.335938 0.179687
vt 0.335938 0.789062
vt 0.445313 0.179687
vt 0.335938 0.117187
vt 0.445313 0.117187
vt 0.382813 0.007812
vt 0.398438 0.007812
vt 0.351563 0.851562
vt 0.382813 0.867187
vt 0.429688 0.851562
vt 0.945313 0.523437
vt 0.960938 0.164062
vt 0.789063 0.179687
vt 0.804688 0.210937
vt 0.960938 0.304687
vt 0.851563 0.304687
vt 0.960938 0.210937
vt 0.820313 0.476562
vt 0.570313 0.335937
vt 0.820313 0.335937
vt 0.570313 0.476562
vt 0.023438 0.945312
vt 0.960938 0.867187
vt 0.023438 0.914062
vt 0.914063 0.960937
vt 0.023438 0.976562
vt 0.570313 0.523437
vt 0.898438 0.539062
vt 0.773438 0.539062
vt 0.898438 0.742187
vt 0.726563 0.742187
vt 0.898438 0.523437
vt 0.710938 0.742187
vt 0.554688 0.523437
vt 0.804688 0.523437
# 67 texture coordinates

vn 0.000000 0.000000 -1.000000
vn 0.972653 -0.176669 0.150777
vn 0.933418 0.358235 0.019975
vn 0.933771 0.357871 0.000000
vn 0.983534 -0.180432 0.010288
vn 0.845942 -0.040748 0.531715
vn 0.915058 0.332636 0.228082
vn 0.923036 0.317637 0.217053
vn 0.644658 0.221841 0.731575
vn 0.969345 -0.191914 -0.153423
vn 0.901224 0.374382 -0.218249
vn 0.937602 0.344619 -0.046264
vn 0.921255 -0.298550 -0.249312
vn -0.920477 0.364270 -0.141528
vn -0.957812 0.087796 -0.273657
vn -0.976980 -0.171229 -0.127240
vn -0.872859 0.413210 -0.259565
vn -0.935605 0.351557 0.032421
vn -0.982275 -0.186732 -0.016366
vn -0.931068 0.357086 0.074841
vn -0.972689 -0.183219 0.142501
vn -0.913731 0.332248 0.233895
vn -0.916875 0.315517 0.244518
vn -0.644658 0.221841 0.731575
vn -0.760581 -0.602182 -0.242679
vn -0.689850 -0.692116 -0.212326
vn -0.727470 -0.683339 -0.061927
vn -0.748998 -0.658473 -0.073592
vn -0.750247 -0.661158 -0.000078
vn -0.647857 -0.596030 0.474373
vn -0.711596 -0.649694 0.267449
vn -0.699843 -0.660396 0.272209
vn -0.421030 -0.397298 0.815407
vn 0.000000 -0.988340 -0.152261
vn 0.312060 -0.928363 -0.201892
vn 0.000000 -0.985524 -0.169536
vn 0.000000 -0.996914 -0.078501
vn 0.000000 -0.993065 -0.117571
vn 0.000000 -0.996515 0.083418
vn 0.000000 -1.000000 0.000000
vn 0.000000 -0.968631 0.248503
vn 0.000000 -0.598793 0.800904
vn 0.747141 -0.640301 -0.178311
vn 0.735743 -0.675971 -0.041775
vn 0.746910 -0.658731 0.090549
vn 0.648676 -0.596825 0.472249
vn 0.421030 -0.397298 0.815407
vn 0.000000 1.000000 0.000000
vn 0.000000 0.998739 0.050205
vn 0.000000 0.985985 0.166836
vn 0.000000 0.994946 0.100410
vn 0.000000 0.999967 -0.008081
vn 0.000000 0.985387 -0.170332
vn 0.000000 0.946025 -0.324094
vn 0.000000 0.598793 0.800904
vn 0.000000 0.968631 0.248503
vn -1.000000 0.000000 0.000000
vn 1.000000 0.000000 0.000000
vn 0.000000 0.073192 0.997318
vn 0.000000 0.963046 -0.269336
vn -0.073962 0.997210 0.010095
vn -0.104993 0.992621 -0.060670
vn -0.149277 0.977683 -0.147829
vn 0.097388 -0.995165 -0.012741
vn 0.128872 -0.990046 0.056576
vn 0.162590 -0.975621 0.147402
vn -0.035361 0.995393 0.089115
vn -0.010883 0.988512 0.150753
vn 0.063610 -0.993647 -0.092840
vn 0.033030 -0.988060 -0.150488
vn 0.500071 0.865984 0.000000
vn 0.748257 0.663409 0.000000
vn 0.998199 -0.059996 0.000000
vn 0.059997 0.998199 0.000000
vn 0.392744 -0.919648 -0.000000
vn 0.663408 -0.748258 0.000000
vn -0.059997 -0.998199 -0.000000
vn 0.447214 0.894427 0.000000
vn -0.447214 0.894427 0.000000
vn 0.105621 0.992621 -0.059568
vn 0.073853 0.997210 0.010868
vn 0.150815 0.977683 -0.146259
vn -0.129456 -0.990046 0.055224
vn -0.097249 -0.995165 -0.013759
vn -0.164122 -0.975622 0.145692
vn 0.034427 0.995393 0.089481
vn 0.009306 0.988512 0.150859
vn -0.062635 -0.993647 -0.093500
vn -0.031454 -0.988060 -0.150825
vn -0.093335 0.995635 -0.000306
vn -0.064120 0.991365 -0.114388
vn -0.059997 0.998199 0.000000
vn -0.110424 0.993884 -0.000464
vn -0.147508 0.962807 0.226370
vn 0.026049 -0.999660 -0.000804
vn -0.017796 -0.993394 0.113365
vn 0.059998 -0.998199 -0.000000
vn 0.008514 -0.999963 -0.001218
vn 0.111746 -0.967476 -0.226944
# 99 normals

g mdl_R-l-0
usemtl mis12bmp
f 1/1/1 3/2/1 2/3/1
f 1/1/1 4/4/1 3/2/1
f 1/1/1 5/5/1 4/4/1
f 1/1/1 6/6/1 5/5/1
f 7/7/2 9/8/3 8/9/4
f 7/7/2 10/10/5 9/8/3
f 11/11/6 13/9/7 12/12/8
f 11/11/6 7/7/2 13/9/7
f 14/13/9 11/11/6 15/12/9
f 16/14/10 18/15/11 17/16/12
f 16/14/10 19/17/13 18/15/11
f 20/16/14 22/17/15 21/14/16
f 20/16/14 23/15/17 22/17/15
f 24/8/18 21/14/16 25/10/19
f 24/8/18 20/16/14 21/14/16
f 26/9/20 25/10/19 27/7/21
f 26/9/20 24/8/18 25/10/19
f 28/12/22 27/7/21 29/11/23
f 28/12/22 26/9/20 27/7/21
f 30/11/24 32/13/24 31/12/24
f 10/10/5 17/16/12 9/8/3
f 10/10/5 16/14/10 17/16/12
f 21/14/16 34/18/25 33/19/26
f 21/14/16 22/17/15 34/18/25
f 25/10/19 36/19/27 35/20/28
f 25/10/19 21/14/16 36/19/27
f 27/7/21 38/20/29 37/21/29
f 27/7/21 25/10/19 38/20/29
f 39/11/30 41/21/31 40/22/32
f 39/11/30 27/7/21 41/21/31
f 42/22/33 39/11/30 43/13/33
f 44/23/34 46/18/35 45/24/36
f 44/23/34 47/25/36 46/18/35
f 48/26/37 50/24/38 49/27/38
f 48/26/37 44/23/34 50/24/38
f 51/28/39 53/27/40 52/29/40
f 51/28/39 48/26/37 53/27/40
f 54/30/41 56/29/41 55/31/41
f 54/30/41 51/28/39 56/29/41
f 57/31/42 59/13/42 58/30/42
f 60/19/43 19/17/13 16/14/10
f 60/19/43 46/18/35 19/17/13
f 61/20/44 16/14/10 10/10/5
f 61/20/44 60/19/43 16/14/10
f 62/21/45 10/10/5 7/7/2
f 62/21/45 61/20/44 10/10/5
f 63/22/46 7/7/2 11/11/6
f 63/22/46 62/21/45 7/7/2
f 64/13/47 63/22/46 11/11/6
f 65/32/48 67/33/49 66/34/50
f 65/32/48 68/35/51 67/33/49
f 68/35/51 69/36/52 67/33/49
f 68/35/51 70/37/53 69/36/52
f 70/37/53 71/38/54 69/36/52
f 70/37/53 72/39/54 71/38/54
f 73/40/55 75/41/55 74/42/55
f 76/42/56 66/34/50 77/40/56
f 76/42/56 78/32/56 66/34/50
f 79/43/57 81/44/57 80/45/57
f 82/45/58 84/44/58 83/43/58
f 85/46/59 87/47/59 86/48/59
f 85/46/59 88/49/59 87/47/59
f 89/50/60 91/51/60 90/52/60
f 89/50/60 92/53/60 91/51/60
f 93/54/61 95/55/62 94/56/63
f 96/54/64 98/55/65 97/56/66
f 99/57/67 93/54/61 100/58/68
f 95/55/62 93/54/61 99/57/67
f 101/57/69 96/54/64 102/58/70
f 96/54/64 101/57/69 98/55/65
f 103/59/71 105/60/72 104/61/73
f 103/59/71 106/62/74 105/60/72
f 103/59/71 107/63/74 106/62/74
f 108/59/75 110/60/76 109/61/73
f 108/59/75 111/62/77 110/60/76
f 108/59/75 112/63/77 111/62/77
f 113/64/78 115/65/58 114/62/57
f 113/64/78 116/66/79 115/65/58
f 113/64/78 117/67/48 116/66/79
f 116/66/79 114/62/57 115/65/58
f 116/66/79 113/64/78 114/62/57
f 116/66/79 118/67/48 113/64/78
f 119/55/80 121/54/81 120/56/82
f 122/55/83 124/54/84 123/56/85
f 121/54/81 126/57/86 125/58/87
f 121/54/81 119/55/80 126/57/86
f 124/54/84 128/57/88 127/58/89
f 128/57/88 124/54/84 122/55/83
f 129/63/90 131/60/91 130/62/92
f 129/63/90 132/61/93 131/60/91
f 129/63/90 133/59/94 132/61/93
f 134/63/95 136/60/96 135/62/97
f 134/63/95 137/61/98 136/60/96
f 134/63/95 138/59/99 137/61/98
# 94 triangles in group

# 94 triangles total

