# Wavefront OBJ exported by MilkShape 3D

mtllib mis2.mtl

v -0.110728 -0.467615 -1.935808
v 0.110730 -0.467615 -1.935807
v 0.003968 -1.522386 -1.935807
v 0.003969 -2.052489 -3.520682
v 0.110731 -0.467615 -3.520682
v -0.110726 -0.467615 -3.520682
v -0.467613 0.110729 -1.935808
v -0.467614 -0.110728 -1.935808
v -1.522385 -0.003966 -1.935808
v -2.052487 -0.003965 -3.520683
v -0.467612 -0.110728 -3.520682
v -0.467612 0.110729 -3.520682
v 0.467616 -0.110728 -1.935807
v 0.467616 0.110729 -1.935807
v 1.522388 0.003968 -1.935806
v 2.052491 0.003968 -3.520680
v 0.467617 0.110729 -3.520681
v 0.467617 -0.110728 -3.520681
v 0.110730 0.467615 -1.935807
v -0.110728 0.467615 -1.935808
v -0.003966 1.522386 -1.935807
v -0.003964 2.052489 -3.520682
v -0.110726 0.467615 -3.520682
v 0.110731 0.467615 -3.520682
v -0.000002 0.000000 3.329153
v -1.062867 0.000000 2.797463
v -0.751561 0.655360 2.797463
v -1.285240 0.000000 1.989277
v -0.908802 0.908801 1.989278
v -1.497937 0.000000 0.764778
v -1.059201 1.059201 0.764778
v -1.285480 0.000000 -0.822328
v -0.908972 0.908972 -0.822327
v -0.617108 0.000000 -1.717185
v -0.436361 0.436362 -1.717185
v -0.532072 0.000000 -3.601202
v -0.376231 0.376233 -3.601202
v -0.000002 0.926818 2.797464
v -0.000001 1.285238 1.989278
v -0.000001 1.497936 0.764779
v 0.000001 1.285481 -0.822327
v 0.000001 0.617109 -1.717185
v 0.000002 0.532074 -3.601201
v 0.751558 0.655360 2.797464
v 0.908799 0.908801 1.989279
v 1.059200 1.059201 0.764779
v 0.908973 0.908972 -0.822327
v 0.436363 0.436362 -1.717184
v 0.376236 0.376233 -3.601201
v 1.062864 0.000000 2.797464
v 1.285237 0.000000 1.989279
v 1.497936 0.000000 0.764780
v 1.285482 0.000000 -0.822326
v 0.617110 0.000000 -1.717184
v 0.532076 0.000000 -3.601201
v 0.751558 -0.655360 2.797464
v 0.908799 -0.908801 1.989279
v 1.059200 -1.059201 0.764779
v 0.908973 -0.908972 -0.822326
v 0.436363 -0.436362 -1.717184
v 0.376236 -0.376233 -3.601201
v -0.000002 -0.926818 2.797464
v -0.000001 -1.285238 1.989278
v -0.000001 -1.497936 0.764779
v 0.000001 -1.285481 -0.822327
v 0.000001 -0.617109 -1.717185
v 0.000002 -0.532075 -3.601201
v -0.751561 -0.655360 2.797463
v -0.908802 -0.908801 1.989278
v -1.059201 -1.059201 0.764778
v -0.908972 -0.908972 -0.822327
v -0.436361 -0.436362 -1.717184
v -0.376231 -0.376233 -3.601202
v 0.532076 0.000000 -3.601201
v 0.376236 0.376233 -3.601201
v 0.000002 0.532074 -3.601201
v -0.376231 0.376233 -3.601202
v -0.532072 0.000000 -3.601202
v -0.376231 -0.376233 -3.601202
v 0.000002 -0.532075 -3.601201
v 0.376236 -0.376233 -3.601201
# 81 vertices

vt 0.035278 0.007081
vt 0.035278 0.343742
vt 0.542847 0.512940
vt 0.542847 0.007081
vt 0.029166 0.781250
vt 0.102312 0.863643
vt 0.102312 0.781250
vt 0.213496 0.781250
vt 0.213496 0.895507
vt 0.381954 0.781250
vt 0.381954 0.914415
vt 0.600297 0.781250
vt 0.600297 0.895528
vt 0.723406 0.781250
vt 0.723406 0.836110
vt 0.982596 0.781250
vt 0.982596 0.828551
vt 0.102312 0.897772
vt 0.213496 0.942833
vt 0.381954 0.969574
vt 0.600297 0.942864
vt 0.723406 0.858834
vt 0.982596 0.848144
vt 0.102312 0.698857
vt 0.213496 0.666994
vt 0.381954 0.648085
vt 0.600297 0.666972
vt 0.723406 0.726390
vt 0.982596 0.733949
vt 0.102312 0.664728
vt 0.213496 0.619667
vt 0.381954 0.592926
vt 0.600297 0.619636
vt 0.723406 0.703666
vt 0.982596 0.714357
vt 0.987990 0.234375
vt 0.781250 0.436953
vt 0.927437 0.377619
vt 0.635063 0.377619
vt 0.574510 0.234375
vt 0.781250 0.031797
vt 0.635063 0.091131
vt 0.927437 0.091131
# 43 texture coordinates

vn -0.595840 0.534560 0.599351
vn -0.673384 -0.189749 0.714527
vn 0.687597 0.632389 0.356784
vn 0.715218 -0.172528 -0.677272
vn 0.589401 0.551033 -0.590736
vn -0.694153 0.634367 -0.340190
vn 0.534560 0.595838 0.599352
vn -0.189749 0.673383 0.714528
vn 0.632388 -0.687598 0.356784
vn -0.172528 -0.715218 -0.677272
vn 0.551033 -0.589401 -0.590736
vn 0.634368 0.694153 -0.340189
vn -0.534560 -0.595839 0.599351
vn 0.189749 -0.673383 0.714528
vn -0.632390 0.687597 0.356783
vn 0.172528 0.715218 -0.677272
vn -0.551033 0.589400 -0.590737
vn -0.634367 -0.694154 -0.340190
vn 0.595838 -0.534560 0.599352
vn 0.673383 0.189749 0.714529
vn -0.687598 -0.632389 0.356783
vn -0.715218 0.172528 -0.677272
vn -0.589401 -0.551033 -0.590737
vn 0.694154 -0.634367 -0.340189
vn -0.000001 0.000000 1.000000
vn -0.608843 0.534222 0.586444
vn -0.807979 -0.083857 0.583214
vn -0.974159 0.006183 0.225778
vn -0.680081 0.682457 0.267848
vn -0.999809 -0.000354 0.019521
vn -0.707222 0.706722 0.019521
vn -0.924605 0.011910 -0.380741
vn -0.645373 0.662216 -0.380740
vn -0.940178 -0.012543 -0.340453
vn -0.673675 0.655937 -0.340453
vn -0.989614 0.136637 -0.044667
vn -0.603145 0.796380 -0.044666
vn -0.078771 0.784650 0.614914
vn -0.010589 0.958593 0.284582
vn -0.000354 0.999809 0.019522
vn 0.011910 0.924605 -0.380740
vn -0.012543 0.940178 -0.340452
vn 0.136637 0.989614 -0.044666
vn 0.477453 0.631383 0.611060
vn 0.679784 0.691540 0.244267
vn 0.706722 0.707222 0.019522
vn 0.662217 0.645373 -0.380740
vn 0.655937 0.673676 -0.340452
vn 0.796380 0.603145 -0.044665
vn 0.807978 0.083857 0.583215
vn 0.974159 -0.006183 0.225779
vn 0.999809 0.000354 0.019522
vn 0.924606 -0.011910 -0.380739
vn 0.940178 0.012543 -0.340452
vn 0.989614 -0.136637 -0.044665
vn 0.608843 -0.534222 0.586444
vn 0.680081 -0.682457 0.267849
vn 0.707222 -0.706722 0.019522
vn 0.645373 -0.662217 -0.380739
vn 0.673676 -0.655937 -0.340452
vn 0.603146 -0.796379 -0.044665
vn 0.078770 -0.784650 0.614914
vn 0.010588 -0.958593 0.284582
vn 0.000354 -0.999809 0.019522
vn -0.011910 -0.924605 -0.380740
vn 0.012543 -0.940178 -0.340452
vn -0.136637 -0.989614 -0.044666
vn -0.477454 -0.631383 0.611059
vn -0.679784 -0.691540 0.244266
vn -0.706722 -0.707222 0.019521
vn -0.662216 -0.645373 -0.380740
vn -0.655937 -0.673676 -0.340453
vn -0.796380 -0.603145 -0.044666
vn 0.000001 0.000000 -1.000000
# 74 normals

g mdl_R
usemtl mis02bmp
f 1/1/1 3/2/2 2/1/3
f 4/3/4 2/1/3 3/2/2
f 4/3/4 5/4/5 2/1/3
f 2/1/3 6/4/6 1/1/1
f 2/1/3 5/4/5 6/4/6
f 4/3/4 6/4/6 5/4/5
f 3/2/2 1/1/1 6/4/6
f 6/4/6 4/3/4 3/2/2
f 7/1/7 9/2/8 8/1/9
f 10/3/10 8/1/9 9/2/8
f 10/3/10 11/4/11 8/1/9
f 8/1/9 12/4/12 7/1/7
f 8/1/9 11/4/11 12/4/12
f 10/3/10 12/4/12 11/4/11
f 9/2/8 7/1/7 12/4/12
f 12/4/12 10/3/10 9/2/8
f 13/1/13 15/2/14 14/1/15
f 16/3/16 14/1/15 15/2/14
f 16/3/16 17/4/17 14/1/15
f 14/1/15 18/4/18 13/1/13
f 14/1/15 17/4/17 18/4/18
f 16/3/16 18/4/18 17/4/17
f 15/2/14 13/1/13 18/4/18
f 18/4/18 16/3/16 15/2/14
f 19/1/19 21/2/20 20/1/21
f 22/3/22 20/1/21 21/2/20
f 22/3/22 23/4/23 20/1/21
f 20/1/21 24/4/24 19/1/19
f 20/1/21 23/4/23 24/4/24
f 22/3/22 24/4/24 23/4/23
f 21/2/20 19/1/19 24/4/24
f 24/4/24 22/3/22 21/2/20
f 25/5/25 27/6/26 26/7/27
f 28/8/28 27/6/26 29/9/29
f 28/8/28 26/7/27 27/6/26
f 30/10/30 29/9/29 31/11/31
f 30/10/30 28/8/28 29/9/29
f 32/12/32 31/11/31 33/13/33
f 32/12/32 30/10/30 31/11/31
f 34/14/34 33/13/33 35/15/35
f 34/14/34 32/12/32 33/13/33
f 36/16/36 35/15/35 37/17/37
f 36/16/36 34/14/34 35/15/35
f 25/5/25 38/18/38 27/6/26
f 29/9/29 38/18/38 39/19/39
f 29/9/29 27/6/26 38/18/38
f 31/11/31 39/19/39 40/20/40
f 31/11/31 29/9/29 39/19/39
f 33/13/33 40/20/40 41/21/41
f 33/13/33 31/11/31 40/20/40
f 35/15/35 41/21/41 42/22/42
f 35/15/35 33/13/33 41/21/41
f 37/17/37 42/22/42 43/23/43
f 37/17/37 35/15/35 42/22/42
f 25/5/25 44/6/44 38/18/38
f 39/19/39 44/6/44 45/9/45
f 39/19/39 38/18/38 44/6/44
f 40/20/40 45/9/45 46/11/46
f 40/20/40 39/19/39 45/9/45
f 41/21/41 46/11/46 47/13/47
f 41/21/41 40/20/40 46/11/46
f 42/22/42 47/13/47 48/15/48
f 42/22/42 41/21/41 47/13/47
f 43/23/43 48/15/48 49/17/49
f 43/23/43 42/22/42 48/15/48
f 25/5/25 50/7/50 44/6/44
f 45/9/45 50/7/50 51/8/51
f 45/9/45 44/6/44 50/7/50
f 46/11/46 51/8/51 52/10/52
f 46/11/46 45/9/45 51/8/51
f 47/13/47 52/10/52 53/12/53
f 47/13/47 46/11/46 52/10/52
f 48/15/48 53/12/53 54/14/54
f 48/15/48 47/13/47 53/12/53
f 49/17/49 54/14/54 55/16/55
f 49/17/49 48/15/48 54/14/54
f 25/5/25 56/24/56 50/7/50
f 51/8/51 56/24/56 57/25/57
f 51/8/51 50/7/50 56/24/56
f 52/10/52 57/25/57 58/26/58
f 52/10/52 51/8/51 57/25/57
f 53/12/53 58/26/58 59/27/59
f 53/12/53 52/10/52 58/26/58
f 54/14/54 59/27/59 60/28/60
f 54/14/54 53/12/53 59/27/59
f 55/16/55 60/28/60 61/29/61
f 55/16/55 54/14/54 60/28/60
f 25/5/25 62/30/62 56/24/56
f 57/25/57 62/30/62 63/31/63
f 57/25/57 56/24/56 62/30/62
f 58/26/58 63/31/63 64/32/64
f 58/26/58 57/25/57 63/31/63
f 59/27/59 64/32/64 65/33/65
f 59/27/59 58/26/58 64/32/64
f 60/28/60 65/33/65 66/34/66
f 60/28/60 59/27/59 65/33/65
f 61/29/61 66/34/66 67/35/67
f 61/29/61 60/28/60 66/34/66
f 25/5/25 68/24/68 62/30/62
f 63/31/63 68/24/68 69/25/69
f 63/31/63 62/30/62 68/24/68
f 64/32/64 69/25/69 70/26/70
f 64/32/64 63/31/63 69/25/69
f 65/33/65 70/26/70 71/27/71
f 65/33/65 64/32/64 70/26/70
f 66/34/66 71/27/71 72/28/72
f 66/34/66 65/33/65 71/27/71
f 67/35/67 72/28/72 73/29/73
f 67/35/67 66/34/66 72/28/72
f 25/5/25 26/7/27 68/24/68
f 69/25/69 26/7/27 28/8/28
f 69/25/69 68/24/68 26/7/27
f 70/26/70 28/8/28 30/10/30
f 70/26/70 69/25/69 28/8/28
f 71/27/71 30/10/30 32/12/32
f 71/27/71 70/26/70 30/10/30
f 72/28/72 32/12/32 34/14/34
f 72/28/72 71/27/71 32/12/32
f 73/29/73 34/14/34 36/16/36
f 73/29/73 72/28/72 34/14/34
f 74/36/74 76/37/74 75/38/74
f 74/36/74 77/39/74 76/37/74
f 74/36/74 78/40/74 77/39/74
f 78/40/74 80/41/74 79/42/74
f 78/40/74 81/43/74 80/41/74
f 78/40/74 74/36/74 81/43/74
# 126 triangles in group

# 126 triangles total

